v 0.437500 -0.765625 0.164062
v -0.437500 -0.765625 0.164062
v 0.500000 -0.687500 0.093750
v -0.500000 -0.687500 0.093750
v 0.546875 -0.578125 0.054688
v -0.546875 -0.578125 0.054688
v 0.351562 -0.617188 -0.023438
v -0.351562 -0.617188 -0.023438
v 0.351562 -0.718750 0.031250
v -0.351562 -0.718750 0.031250
v 0.351562 -0.781250 0.132812
v -0.351562 -0.781250 0.132812
v 0.273438 -0.796875 0.164062
v -0.273438 -0.796875 0.164062
v 0.203125 -0.742188 0.093750
v -0.203125 -0.742188 0.093750
v 0.156250 -0.648438 0.054688
v -0.156250 -0.648438 0.054688
v 0.078125 -0.656250 0.242188
v -0.078125 -0.656250 0.242188
v 0.140625 -0.742188 0.242188
v -0.140625 -0.742188 0.242188
v 0.242188 -0.796875 0.242188
v -0.242188 -0.796875 0.242188
v 0.273438 -0.796875 0.328125
v -0.273438 -0.796875 0.328125
v 0.203125 -0.742188 0.390625
v -0.203125 -0.742188 0.390625
v 0.156250 -0.648438 0.437500
v -0.156250 -0.648438 0.437500
v 0.351562 -0.617188 0.515625
v -0.351562 -0.617188 0.515625
v 0.351562 -0.718750 0.453125
v -0.351562 -0.718750 0.453125
v 0.351562 -0.781250 0.359375
v -0.351562 -0.781250 0.359375
v 0.437500 -0.765625 0.328125
v -0.437500 -0.765625 0.328125
v 0.500000 -0.687500 0.390625
v -0.500000 -0.687500 0.390625
v 0.546875 -0.578125 0.437500
v -0.546875 -0.578125 0.437500
v 0.625000 -0.562500 0.242188
v -0.625000 -0.562500 0.242188
v 0.562500 -0.671875 0.242188
v -0.562500 -0.671875 0.242188
v 0.468750 -0.757812 0.242188
v -0.468750 -0.757812 0.242188
v 0.476562 -0.773438 0.242188
v -0.476562 -0.773438 0.242188
v 0.445312 -0.781250 0.335938
v -0.445312 -0.781250 0.335938
v 0.351562 -0.804688 0.375000
v -0.351562 -0.804688 0.375000
v 0.265625 -0.820312 0.335938
v -0.265625 -0.820312 0.335938
v 0.226562 -0.820312 0.242188
v -0.226562 -0.820312 0.242188
v 0.265625 -0.820312 0.156250
v -0.265625 -0.820312 0.156250
v 0.351562 -0.828125 0.242188
v -0.351562 -0.828125 0.242188
v 0.351562 -0.804688 0.117188
v -0.351562 -0.804688 0.117188
v 0.445312 -0.781250 0.156250
v -0.445312 -0.781250 0.156250
v 0.000000 -0.742188 0.429688
v 0.000000 -0.820312 0.351562
v 0.000000 -0.734375 -0.679688
v 0.000000 -0.781250 -0.320312
v 0.000000 -0.796875 -0.187500
v 0.000000 -0.718750 -0.773438
v 0.000000 -0.601562 0.406250
v 0.000000 -0.570312 0.570312
v 0.000000 0.546875 0.898438
v 0.000000 0.851562 0.562500
v 0.000000 0.828125 0.070312
v 0.000000 0.351562 -0.382812
v 0.203125 -0.562500 -0.187500
v -0.203125 -0.562500 -0.187500
v 0.312500 -0.570312 -0.437500
v -0.312500 -0.570312 -0.437500
v 0.351562 -0.570312 -0.695312
v -0.351562 -0.570312 -0.695312
v 0.367188 -0.531250 -0.890625
v -0.367188 -0.531250 -0.890625
v 0.328125 -0.523438 -0.945312
v -0.328125 -0.523438 -0.945312
v 0.179688 -0.554688 -0.968750
v -0.179688 -0.554688 -0.968750
v 0.000000 -0.578125 -0.984375
v 0.437500 -0.531250 -0.140625
v -0.437500 -0.531250 -0.140625
v 0.632812 -0.539062 -0.039062
v -0.632812 -0.539062 -0.039062
v 0.828125 -0.445312 0.148438
v -0.828125 -0.445312 0.148438
v 0.859375 -0.593750 0.429688
v -0.859375 -0.593750 0.429688
v 0.710938 -0.625000 0.484375
v -0.710938 -0.625000 0.484375
v 0.492188 -0.687500 0.601562
v -0.492188 -0.687500 0.601562
v 0.320312 -0.734375 0.757812
v -0.320312 -0.734375 0.757812
v 0.156250 -0.757812 0.718750
v -0.156250 -0.757812 0.718750
v 0.062500 -0.750000 0.492188
v -0.062500 -0.750000 0.492188
v 0.164062 -0.773438 0.414062
v -0.164062 -0.773438 0.414062
v 0.125000 -0.765625 0.304688
v -0.125000 -0.765625 0.304688
v 0.203125 -0.742188 0.093750
v -0.203125 -0.742188 0.093750
v 0.375000 -0.703125 0.015625
v -0.375000 -0.703125 0.015625
v 0.492188 -0.671875 0.062500
v -0.492188 -0.671875 0.062500
v 0.625000 -0.648438 0.187500
v -0.625000 -0.648438 0.187500
v 0.640625 -0.648438 0.296875
v -0.640625 -0.648438 0.296875
v 0.601562 -0.664062 0.375000
v -0.601562 -0.664062 0.375000
v 0.429688 -0.718750 0.437500
v -0.429688 -0.718750 0.437500
v 0.250000 -0.757812 0.468750
v -0.250000 -0.757812 0.468750
v 0.000000 -0.734375 -0.765625
v 0.109375 -0.734375 -0.718750
v -0.109375 -0.734375 -0.718750
v 0.117188 -0.710938 -0.835938
v -0.117188 -0.710938 -0.835938
v 0.062500 -0.695312 -0.882812
v -0.062500 -0.695312 -0.882812
v 0.000000 -0.687500 -0.890625
v 0.000000 -0.750000 -0.195312
v 0.000000 -0.742188 -0.140625
v 0.101562 -0.742188 -0.148438
v -0.101562 -0.742188 -0.148438
v 0.125000 -0.750000 -0.226562
v -0.125000 -0.750000 -0.226562
v 0.085938 -0.742188 -0.289062
v -0.085938 -0.742188 -0.289062
v 0.398438 -0.671875 -0.046875
v -0.398438 -0.671875 -0.046875
v 0.617188 -0.625000 0.054688
v -0.617188 -0.625000 0.054688
v 0.726562 -0.601562 0.203125
v -0.726562 -0.601562 0.203125
v 0.742188 -0.656250 0.375000
v -0.742188 -0.656250 0.375000
v 0.687500 -0.726562 0.414062
v -0.687500 -0.726562 0.414062
v 0.437500 -0.796875 0.546875
v -0.437500 -0.796875 0.546875
v 0.312500 -0.835938 0.640625
v -0.312500 -0.835938 0.640625
v 0.203125 -0.851562 0.617188
v -0.203125 -0.851562 0.617188
v 0.101562 -0.843750 0.429688
v -0.101562 -0.843750 0.429688
v 0.125000 -0.812500 -0.101562
v -0.125000 -0.812500 -0.101562
v 0.210938 -0.710938 -0.445312
v -0.210938 -0.710938 -0.445312
v 0.250000 -0.687500 -0.703125
v -0.250000 -0.687500 -0.703125
v 0.265625 -0.664062 -0.820312
v -0.265625 -0.664062 -0.820312
v 0.234375 -0.632812 -0.914062
v -0.234375 -0.632812 -0.914062
v 0.164062 -0.632812 -0.929688
v -0.164062 -0.632812 -0.929688
v 0.000000 -0.640625 -0.945312
v 0.000000 -0.726562 0.046875
v 0.000000 -0.765625 0.210938
v 0.328125 -0.742188 0.476562
v -0.328125 -0.742188 0.476562
v 0.164062 -0.750000 0.140625
v -0.164062 -0.750000 0.140625
v 0.132812 -0.757812 0.210938
v -0.132812 -0.757812 0.210938
v 0.117188 -0.734375 -0.687500
v -0.117188 -0.734375 -0.687500
v 0.078125 -0.750000 -0.445312
v -0.078125 -0.750000 -0.445312
v 0.000000 -0.750000 -0.445312
v 0.000000 -0.742188 -0.328125
v 0.093750 -0.781250 -0.273438
v -0.093750 -0.781250 -0.273438
v 0.132812 -0.796875 -0.226562
v -0.132812 -0.796875 -0.226562
v 0.109375 -0.781250 -0.132812
v -0.109375 -0.781250 -0.132812
v 0.039062 -0.781250 -0.125000
v -0.039062 -0.781250 -0.125000
v 0.000000 -0.828125 -0.203125
v 0.046875 -0.812500 -0.148438
v -0.046875 -0.812500 -0.148438
v 0.093750 -0.812500 -0.156250
v -0.093750 -0.812500 -0.156250
v 0.109375 -0.828125 -0.226562
v -0.109375 -0.828125 -0.226562
v 0.078125 -0.804688 -0.250000
v -0.078125 -0.804688 -0.250000
v 0.000000 -0.804688 -0.289062
v 0.257812 -0.554688 -0.312500
v -0.257812 -0.554688 -0.312500
v 0.164062 -0.710938 -0.242188
v -0.164062 -0.710938 -0.242188
v 0.179688 -0.710938 -0.312500
v -0.179688 -0.710938 -0.312500
v 0.234375 -0.554688 -0.250000
v -0.234375 -0.554688 -0.250000
v 0.000000 -0.687500 -0.875000
v 0.046875 -0.687500 -0.867188
v -0.046875 -0.687500 -0.867188
v 0.093750 -0.710938 -0.820312
v -0.093750 -0.710938 -0.820312
v 0.093750 -0.726562 -0.742188
v -0.093750 -0.726562 -0.742188
v 0.000000 -0.656250 -0.781250
v 0.093750 -0.664062 -0.750000
v -0.093750 -0.664062 -0.750000
v 0.093750 -0.640625 -0.812500
v -0.093750 -0.640625 -0.812500
v 0.046875 -0.632812 -0.851562
v -0.046875 -0.632812 -0.851562
v 0.000000 -0.632812 -0.859375
v 0.171875 -0.781250 0.218750
v -0.171875 -0.781250 0.218750
v 0.187500 -0.773438 0.156250
v -0.187500 -0.773438 0.156250
v 0.335938 -0.757812 0.429688
v -0.335938 -0.757812 0.429688
v 0.273438 -0.773438 0.421875
v -0.273438 -0.773438 0.421875
v 0.421875 -0.773438 0.398438
v -0.421875 -0.773438 0.398438
v 0.562500 -0.695312 0.351562
v -0.562500 -0.695312 0.351562
v 0.585938 -0.687500 0.289062
v -0.585938 -0.687500 0.289062
v 0.578125 -0.679688 0.195312
v -0.578125 -0.679688 0.195312
v 0.476562 -0.718750 0.101562
v -0.476562 -0.718750 0.101562
v 0.375000 -0.742188 0.062500
v -0.375000 -0.742188 0.062500
v 0.226562 -0.781250 0.109375
v -0.226562 -0.781250 0.109375
v 0.179688 -0.781250 0.296875
v -0.179688 -0.781250 0.296875
v 0.210938 -0.781250 0.375000
v -0.210938 -0.781250 0.375000
v 0.234375 -0.757812 0.359375
v -0.234375 -0.757812 0.359375
v 0.195312 -0.757812 0.296875
v -0.195312 -0.757812 0.296875
v 0.242188 -0.757812 0.125000
v -0.242188 -0.757812 0.125000
v 0.375000 -0.726562 0.085938
v -0.375000 -0.726562 0.085938
v 0.460938 -0.703125 0.117188
v -0.460938 -0.703125 0.117188
v 0.546875 -0.671875 0.210938
v -0.546875 -0.671875 0.210938
v 0.554688 -0.671875 0.281250
v -0.554688 -0.671875 0.281250
v 0.531250 -0.679688 0.335938
v -0.531250 -0.679688 0.335938
v 0.414062 -0.750000 0.390625
v -0.414062 -0.750000 0.390625
v 0.281250 -0.765625 0.398438
v -0.281250 -0.765625 0.398438
v 0.335938 -0.750000 0.406250
v -0.335938 -0.750000 0.406250
v 0.203125 -0.750000 0.171875
v -0.203125 -0.750000 0.171875
v 0.195312 -0.750000 0.226562
v -0.195312 -0.750000 0.226562
v 0.109375 -0.609375 0.460938
v -0.109375 -0.609375 0.460938
v 0.195312 -0.617188 0.664062
v -0.195312 -0.617188 0.664062
v 0.335938 -0.593750 0.687500
v -0.335938 -0.593750 0.687500
v 0.484375 -0.554688 0.554688
v -0.484375 -0.554688 0.554688
v 0.679688 -0.492188 0.453125
v -0.679688 -0.492188 0.453125
v 0.796875 -0.460938 0.406250
v -0.796875 -0.460938 0.406250
v 0.773438 -0.375000 0.164062
v -0.773438 -0.375000 0.164062
v 0.601562 -0.414062 0.000000
v -0.601562 -0.414062 0.000000
v 0.437500 -0.468750 -0.093750
v -0.437500 -0.468750 -0.093750
v 0.000000 -0.289062 0.898438
v 0.000000 0.078125 0.984375
v 0.000000 0.671875 -0.195312
v 0.000000 -0.187500 -0.460938
v 0.000000 -0.460938 -0.976562
v 0.000000 -0.343750 -0.804688
v 0.000000 -0.320312 -0.570312
v 0.000000 -0.281250 -0.484375
v 0.851562 -0.054688 0.234375
v -0.851562 -0.054688 0.234375
v 0.859375 0.046875 0.320312
v -0.859375 0.046875 0.320312
v 0.773438 0.437500 0.265625
v -0.773438 0.437500 0.265625
v 0.460938 0.703125 0.437500
v -0.460938 0.703125 0.437500
v 0.734375 -0.070312 -0.046875
v -0.734375 -0.070312 -0.046875
v 0.593750 0.164062 -0.125000
v -0.593750 0.164062 -0.125000
v 0.640625 0.429688 -0.007812
v -0.640625 0.429688 -0.007812
v 0.335938 0.664062 0.054688
v -0.335938 0.664062 0.054688
v 0.234375 -0.406250 -0.351562
v -0.234375 -0.406250 -0.351562
v 0.179688 -0.257812 -0.414062
v -0.179688 -0.257812 -0.414062
v 0.289062 -0.382812 -0.710938
v -0.289062 -0.382812 -0.710938
v 0.250000 -0.390625 -0.500000
v -0.250000 -0.390625 -0.500000
v 0.328125 -0.398438 -0.914062
v -0.328125 -0.398438 -0.914062
v 0.140625 -0.367188 -0.757812
v -0.140625 -0.367188 -0.757812
v 0.125000 -0.359375 -0.539062
v -0.125000 -0.359375 -0.539062
v 0.164062 -0.437500 -0.945312
v -0.164062 -0.437500 -0.945312
v 0.218750 -0.429688 -0.281250
v -0.218750 -0.429688 -0.281250
v 0.210938 -0.468750 -0.226562
v -0.210938 -0.468750 -0.226562
v 0.203125 -0.500000 -0.171875
v -0.203125 -0.500000 -0.171875
v 0.210938 -0.164062 -0.390625
v -0.210938 -0.164062 -0.390625
v 0.296875 0.265625 -0.312500
v -0.296875 0.265625 -0.312500
v 0.343750 0.539062 -0.148438
v -0.343750 0.539062 -0.148438
v 0.453125 0.382812 0.867188
v -0.453125 0.382812 0.867188
v 0.453125 0.070312 0.929688
v -0.453125 0.070312 0.929688
v 0.453125 -0.234375 0.851562
v -0.453125 -0.234375 0.851562
v 0.460938 -0.429688 0.523438
v -0.460938 -0.429688 0.523438
v 0.726562 -0.335938 0.406250
v -0.726562 -0.335938 0.406250
v 0.632812 -0.281250 0.453125
v -0.632812 -0.281250 0.453125
v 0.640625 -0.054688 0.703125
v -0.640625 -0.054688 0.703125
v 0.796875 -0.125000 0.562500
v -0.796875 -0.125000 0.562500
v 0.796875 0.117188 0.617188
v -0.796875 0.117188 0.617188
v 0.640625 0.195312 0.750000
v -0.640625 0.195312 0.750000
v 0.640625 0.445312 0.679688
v -0.640625 0.445312 0.679688
v 0.796875 0.359375 0.539062
v -0.796875 0.359375 0.539062
v 0.617188 0.585938 0.328125
v -0.617188 0.585938 0.328125
v 0.484375 0.546875 0.023438
v -0.484375 0.546875 0.023438
v 0.820312 0.203125 0.328125
v -0.820312 0.203125 0.328125
v 0.406250 -0.148438 -0.171875
v -0.406250 -0.148438 -0.171875
v 0.429688 0.210938 -0.195312
v -0.429688 0.210938 -0.195312
v 0.890625 0.234375 0.406250
v -0.890625 0.234375 0.406250
v 0.773438 0.125000 -0.140625
v -0.773438 0.125000 -0.140625
v 1.039062 0.328125 -0.101562
v -1.039062 0.328125 -0.101562
v 1.281250 0.429688 0.054688
v -1.281250 0.429688 0.054688
v 1.351562 0.421875 0.320312
v -1.351562 0.421875 0.320312
v 1.234375 0.421875 0.507812
v -1.234375 0.421875 0.507812
v 1.023438 0.312500 0.476562
v -1.023438 0.312500 0.476562
v 1.015625 0.289062 0.414062
v -1.015625 0.289062 0.414062
v 1.187500 0.390625 0.437500
v -1.187500 0.390625 0.437500
v 1.265625 0.406250 0.289062
v -1.265625 0.406250 0.289062
v 1.210938 0.406250 0.078125
v -1.210938 0.406250 0.078125
v 1.031250 0.304688 -0.039062
v -1.031250 0.304688 -0.039062
v 0.828125 0.132812 -0.070312
v -0.828125 0.132812 -0.070312
v 0.921875 0.218750 0.359375
v -0.921875 0.218750 0.359375
v 0.945312 0.289062 0.304688
v -0.945312 0.289062 0.304688
v 0.882812 0.210938 -0.023438
v -0.882812 0.210938 -0.023438
v 1.039062 0.367188 0.000000
v -1.039062 0.367188 0.000000
v 1.187500 0.445312 0.093750
v -1.187500 0.445312 0.093750
v 1.234375 0.445312 0.250000
v -1.234375 0.445312 0.250000
v 1.171875 0.437500 0.359375
v -1.171875 0.437500 0.359375
v 1.023438 0.359375 0.343750
v -1.023438 0.359375 0.343750
v 0.843750 0.210938 0.289062
v -0.843750 0.210938 0.289062
v 0.835938 0.273438 0.171875
v -0.835938 0.273438 0.171875
v 0.757812 0.273438 0.093750
v -0.757812 0.273438 0.093750
v 0.820312 0.273438 0.085938
v -0.820312 0.273438 0.085938
v 0.843750 0.273438 0.015625
v -0.843750 0.273438 0.015625
v 0.812500 0.273438 -0.015625
v -0.812500 0.273438 -0.015625
v 0.726562 0.070312 0.000000
v -0.726562 0.070312 0.000000
v 0.718750 0.171875 -0.023438
v -0.718750 0.171875 -0.023438
v 0.718750 0.187500 0.039062
v -0.718750 0.187500 0.039062
v 0.796875 0.210938 0.203125
v -0.796875 0.210938 0.203125
v 0.890625 0.265625 0.242188
v -0.890625 0.265625 0.242188
v 0.890625 0.320312 0.234375
v -0.890625 0.320312 0.234375
v 0.812500 0.320312 -0.015625
v -0.812500 0.320312 -0.015625
v 0.851562 0.320312 0.015625
v -0.851562 0.320312 0.015625
v 0.828125 0.320312 0.078125
v -0.828125 0.320312 0.078125
v 0.765625 0.320312 0.093750
v -0.765625 0.320312 0.093750
v 0.843750 0.320312 0.171875
v -0.843750 0.320312 0.171875
v 1.039062 0.414062 0.328125
v -1.039062 0.414062 0.328125
v 1.187500 0.484375 0.343750
v -1.187500 0.484375 0.343750
v 1.257812 0.492188 0.242188
v -1.257812 0.492188 0.242188
v 1.210938 0.484375 0.085938
v -1.210938 0.484375 0.085938
v 1.046875 0.421875 0.000000
v -1.046875 0.421875 0.000000
v 0.882812 0.265625 -0.015625
v -0.882812 0.265625 -0.015625
v 0.953125 0.343750 0.289062
v -0.953125 0.343750 0.289062
v 0.890625 0.328125 0.109375
v -0.890625 0.328125 0.109375
v 0.937500 0.335938 0.062500
v -0.937500 0.335938 0.062500
v 1.000000 0.367188 0.125000
v -1.000000 0.367188 0.125000
v 0.960938 0.351562 0.171875
v -0.960938 0.351562 0.171875
v 1.015625 0.375000 0.234375
v -1.015625 0.375000 0.234375
v 1.054688 0.382812 0.187500
v -1.054688 0.382812 0.187500
v 1.109375 0.390625 0.210938
v -1.109375 0.390625 0.210938
v 1.085938 0.390625 0.273438
v -1.085938 0.390625 0.273438
v 1.023438 0.484375 0.437500
v -1.023438 0.484375 0.437500
v 1.250000 0.546875 0.468750
v -1.250000 0.546875 0.468750
v 1.367188 0.500000 0.296875
v -1.367188 0.500000 0.296875
v 1.312500 0.531250 0.054688
v -1.312500 0.531250 0.054688
v 1.039062 0.492188 -0.085938
v -1.039062 0.492188 -0.085938
v 0.789062 0.328125 -0.125000
v -0.789062 0.328125 -0.125000
v 0.859375 0.382812 0.382812
v -0.859375 0.382812 0.382812
vt 0.890955 0.590063
vt 0.860081 0.560115
vt 0.904571 0.559404
vt 0.856226 0.850547
vt 0.888398 0.821999
vt 0.900640 0.853232
vt 0.853018 0.521562
vt 0.920166 0.524546
vt 0.847458 0.888748
vt 0.914672 0.888748
vt 0.798481 0.569535
vt 0.795104 0.838402
vt 0.870622 0.589649
vt 0.828900 0.590771
vt 0.826436 0.818537
vt 0.868067 0.821510
vt 0.854402 0.604754
vt 0.828171 0.633354
vt 0.827598 0.775964
vt 0.852534 0.805700
vt 0.791018 0.645443
vt 0.791018 0.762238
vt 0.855181 0.668527
vt 0.856142 0.742025
vt 0.844839 0.707525
vt 0.854107 0.625459
vt 0.853157 0.785002
vt 0.867508 0.642291
vt 0.900375 0.666964
vt 0.901223 0.745592
vt 0.867293 0.768782
vt 0.842358 0.702491
vt 0.921180 0.713713
vt 0.931889 0.636832
vt 0.918898 0.699697
vt 0.931368 0.777093
vt 0.968213 0.770220
vt 0.905882 0.627902
vt 0.890474 0.641909
vt 0.904990 0.784860
vt 0.906232 0.605742
vt 0.904357 0.807013
vt 0.931250 0.820926
vt 0.933717 0.593037
vt 0.968392 0.645333
vt 0.965038 0.841671
vt 0.968392 0.573812
vt 0.889591 0.593275
vt 0.887178 0.818729
vt 0.900583 0.804677
vt 0.902359 0.607909
vt 0.898822 0.786233
vt 0.899781 0.626257
vt 0.890219 0.770183
vt 0.887351 0.775442
vt 0.887842 0.636527
vt 0.870376 0.775972
vt 0.859881 0.623942
vt 0.870908 0.635245
vt 0.858859 0.786774
vt 0.859664 0.608186
vt 0.857942 0.802505
vt 0.871664 0.593961
vt 0.869299 0.817249
vt 0.879400 0.616512
vt 0.878029 0.795063
vt 0.536419 0.062072
vt 0.518916 0.050294
vt 0.540260 0.053805
vt 0.501452 0.062043
vt 0.518925 0.059681
vt 0.542788 0.064089
vt 0.551930 0.058338
vt 0.495083 0.064047
vt 0.497626 0.053770
vt 0.555073 0.061900
vt 0.482805 0.061829
vt 0.485955 0.058273
vt 0.563812 0.076586
vt 0.546290 0.072669
vt 0.491565 0.072625
vt 0.474014 0.076511
vt 0.583135 0.108495
vt 0.548333 0.084893
vt 0.489507 0.084858
vt 0.454527 0.108481
vt 0.605512 0.165134
vt 0.621513 0.227818
vt 0.553118 0.209599
vt 0.416514 0.229490
vt 0.432024 0.165644
vt 0.485339 0.210053
vt 0.676379 0.233241
vt 0.647395 0.200502
vt 0.360308 0.235899
vt 0.372747 0.256357
vt 0.683908 0.279995
vt 0.664761 0.253225
vt 0.353696 0.284606
vt 0.707254 0.310054
vt 0.715342 0.265392
vt 0.330721 0.316853
vt 0.351187 0.317440
vt 0.697446 0.332673
vt 0.687515 0.311539
vt 0.341964 0.339667
vt 0.362723 0.329722
vt 0.662817 0.372521
vt 0.676824 0.323937
vt 0.379297 0.378686
vt 0.402772 0.362131
vt 0.618316 0.375151
vt 0.639050 0.357330
vt 0.424583 0.379267
vt 0.604826 0.397804
vt 0.626842 0.395792
vt 0.439252 0.401540
vt 0.442396 0.381222
vt 0.553095 0.390512
vt 0.600808 0.377857
vt 0.490934 0.391862
vt 0.482938 0.358497
vt 0.521923 0.386009
vt 0.559674 0.357011
vt 0.521086 0.343868
vt 0.599845 0.344815
vt 0.577279 0.340156
vt 0.441977 0.347815
vt 0.615546 0.342005
vt 0.634472 0.332311
vt 0.425972 0.345582
vt 0.662406 0.312804
vt 0.406362 0.336480
vt 0.668440 0.297958
vt 0.377061 0.317685
vt 0.664101 0.277872
vt 0.370304 0.302644
vt 0.639236 0.253047
vt 0.374100 0.281778
vt 0.613992 0.242662
vt 0.398938 0.255633
vt 0.572941 0.258564
vt 0.424464 0.244473
vt 0.519760 0.248864
vt 0.466409 0.259709
vt 0.558527 0.316594
vt 0.482619 0.317843
vt 0.520277 0.294764
vt 0.556923 0.291214
vt 0.483433 0.292249
vt 0.563905 0.272007
vt 0.475886 0.273078
vt 0.525483 0.068967
vt 0.512375 0.068956
vt 0.531231 0.073829
vt 0.506626 0.073811
vt 0.531019 0.087431
vt 0.555621 0.121749
vt 0.532669 0.090920
vt 0.505177 0.090908
vt 0.482177 0.121781
vt 0.506827 0.087416
vt 0.518981 0.151749
vt 0.532042 0.127713
vt 0.538112 0.158382
vt 0.505828 0.127728
vt 0.518941 0.128358
vt 0.518925 0.093952
vt 0.518927 0.085180
vt 0.548362 0.173560
vt 0.535214 0.166808
vt 0.502799 0.166857
vt 0.489683 0.173693
vt 0.499851 0.158434
vt 0.544281 0.193366
vt 0.537959 0.175966
vt 0.500100 0.176033
vt 0.493996 0.193428
vt 0.528757 0.191785
vt 0.519841 0.200843
vt 0.509219 0.191626
vt 0.500890 0.187571
vt 0.519132 0.185382
vt 0.517577 0.190607
vt 0.518998 0.159028
vt 0.519016 0.165599
vt 0.506910 0.171667
vt 0.528222 0.186316
vt 0.509787 0.186260
vt 0.533528 0.184215
vt 0.537248 0.187577
vt 0.504547 0.184206
vt 0.504604 0.176791
vt 0.531131 0.171631
vt 0.533449 0.176739
vt 0.519099 0.179457
vt 0.561572 0.167779
vt 0.476363 0.167996
vt 0.478371 0.149447
vt 0.559475 0.149319
vt 0.596138 0.133426
vt 0.441395 0.133592
vt 0.601169 0.147885
vt 0.436337 0.148194
vt 0.528933 0.084957
vt 0.508915 0.084945
vt 0.518925 0.083865
vt 0.529036 0.075429
vt 0.508820 0.075415
vt 0.523751 0.070508
vt 0.514106 0.070501
vt 0.518928 0.067899
vt 0.518929 0.069468
vt 0.518928 0.074259
vt 0.516297 0.074966
vt 0.524236 0.076691
vt 0.521560 0.074970
vt 0.513619 0.076684
vt 0.524601 0.079886
vt 0.513252 0.079879
vt 0.518926 0.079331
vt 0.571787 0.277295
vt 0.568351 0.292904
vt 0.468070 0.278617
vt 0.471978 0.294282
vt 0.573085 0.311386
vt 0.467790 0.313081
vt 0.584855 0.327708
vt 0.456477 0.329961
vt 0.458737 0.268049
vt 0.611720 0.255725
vt 0.580734 0.266620
vt 0.427062 0.257728
vt 0.632494 0.262853
vt 0.406068 0.265508
vt 0.653658 0.279971
vt 0.384904 0.283634
vt 0.656064 0.297636
vt 0.383015 0.301864
vt 0.386858 0.314615
vt 0.652752 0.310186
vt 0.411556 0.327673
vt 0.614408 0.331972
vt 0.629040 0.323864
vt 0.426727 0.335361
vt 0.601033 0.333624
vt 0.440344 0.336537
vt 0.601799 0.328453
vt 0.439372 0.331331
vt 0.450408 0.323919
vt 0.613335 0.327083
vt 0.427623 0.330358
vt 0.626851 0.320513
vt 0.413648 0.324175
vt 0.646248 0.306421
vt 0.393381 0.310510
vt 0.649541 0.296225
vt 0.389662 0.300183
vt 0.647785 0.283486
vt 0.391040 0.287071
vt 0.629829 0.267263
vt 0.408893 0.269959
vt 0.612641 0.261560
vt 0.426254 0.263693
vt 0.585166 0.270991
vt 0.454369 0.272583
vt 0.578124 0.281900
vt 0.461798 0.283441
vt 0.579548 0.309340
vt 0.590644 0.321516
vt 0.461204 0.311233
vt 0.577524 0.293776
vt 0.462754 0.295432
vt 0.553209 0.433063
vt 0.523031 0.433628
vt 0.492809 0.434538
vt 0.609819 0.431516
vt 0.435860 0.435740
vt 0.416915 0.400552
vt 0.396518 0.425416
vt 0.648174 0.419316
vt 0.350292 0.396229
vt 0.692106 0.388274
vt 0.312756 0.350588
vt 0.735879 0.312112
vt 0.726332 0.341754
vt 0.301067 0.320593
vt 0.320452 0.270303
vt 0.304876 0.261087
vt 0.698172 0.216906
vt 0.729900 0.256393
vt 0.337414 0.219179
vt 0.663103 0.190671
vt 0.373474 0.191872
vt 0.649444 0.022378
vt 0.621440 0.048089
vt 0.626908 0.015608
vt 0.388827 0.021586
vt 0.416419 0.047631
vt 0.376796 0.075296
vt 0.577206 0.032801
vt 0.567460 0.000144
vt 0.411318 0.015131
vt 0.460782 0.032656
vt 0.547413 0.041724
vt 0.518922 0.024886
vt 0.470636 0.000144
vt 0.490511 0.041669
vt 0.558059 0.053871
vt 0.479842 0.053785
vt 0.576951 0.057998
vt 0.460920 0.057845
vt 0.611687 0.078268
vt 0.425932 0.077985
vt 0.660451 0.076084
vt 0.626663 0.111357
vt 0.410618 0.111244
vt 0.629482 0.130456
vt 0.407648 0.130594
vt 0.413741 0.147158
vt 0.619303 0.159841
vt 0.418035 0.160361
vt 0.389677 0.201890
vt 0.886245 0.121777
vt 0.891780 0.036916
vt 0.945900 0.079569
vt 0.141314 0.112482
vt 0.142277 0.021467
vt 0.183115 0.092127
vt 0.849114 0.099732
vt 0.805584 0.010786
vt 0.232648 0.003484
vt 0.246353 0.076510
vt 0.687018 0.077204
vt 0.672384 0.022201
vt 0.349875 0.075955
vt 0.365979 0.020991
vt 0.760215 0.193244
vt 0.789046 0.233323
vt 0.271553 0.193871
vt 0.241255 0.236977
vt 0.909112 0.183261
vt 0.994525 0.167705
vt 0.107928 0.179083
vt 0.078961 0.060719
vt 0.862868 0.338556
vt 0.962901 0.344752
vt 0.911671 0.402429
vt 0.160557 0.356821
vt 0.043968 0.367038
vt 0.123776 0.315519
vt 0.915360 0.259804
vt 0.999856 0.254640
vt 0.098965 0.266968
vt 0.000144 0.259113
vt 0.011829 0.155367
vt 0.749542 0.334683
vt 0.766337 0.300809
vt 0.789162 0.313727
vt 0.267408 0.310142
vt 0.288183 0.346496
vt 0.242992 0.325552
vt 0.815314 0.276388
vt 0.846174 0.293397
vt 0.213065 0.285164
vt 0.178537 0.304983
vt 0.845007 0.256352
vt 0.873517 0.265922
vt 0.179662 0.263312
vt 0.147089 0.274284
vt 0.859075 0.228168
vt 0.886999 0.233769
vt 0.162803 0.231720
vt 0.131514 0.237587
vt 0.875030 0.184705
vt 0.842355 0.195160
vt 0.145224 0.182749
vt 0.894128 0.301884
vt 0.794286 0.364062
vt 0.770185 0.379538
vt 0.239776 0.382592
vt 0.845499 0.449967
vt 0.106400 0.432652
vt 0.815858 0.445381
vt 0.755700 0.418603
vt 0.287033 0.442912
vt 0.219260 0.477186
vt 0.268122 0.398737
vt 0.185281 0.484099
vt 0.819845 0.468071
vt 0.215894 0.503605
vt 0.809631 0.233887
vt 0.219168 0.237388
vt 0.829287 0.219562
vt 0.199067 0.222464
vt 0.788458 0.080826
vt 0.715482 0.139727
vt 0.319538 0.139409
vt 0.246666 0.114850
vt 0.785486 0.152330
vt 0.245969 0.151002
vt 0.623495 0.146796
vt 0.837382 0.156361
vt 0.196622 0.155241
vt 0.171653 0.132294
vt 0.786480 0.117591
vt 0.858171 0.137775
vt 0.432388 0.894943
vt 0.491058 0.881714
vt 0.506166 0.904851
vt 0.321637 0.893225
vt 0.263032 0.878321
vt 0.315867 0.868209
vt 0.572792 0.860484
vt 0.604825 0.879946
vt 0.181486 0.854693
vt 0.247207 0.901159
vt 0.148729 0.873349
vt 0.619962 0.791615
vt 0.136063 0.784093
vt 0.169745 0.787474
vt 0.586396 0.793977
vt 0.563786 0.739211
vt 0.194086 0.733241
vt 0.208656 0.740879
vt 0.549027 0.746412
vt 0.508270 0.697693
vt 0.250811 0.693249
vt 0.258399 0.707497
vt 0.438641 0.680683
vt 0.434803 0.658882
vt 0.320962 0.677959
vt 0.325318 0.656224
vt 0.500314 0.711729
vt 0.452955 0.700023
vt 0.306136 0.696976
vt 0.505666 0.730944
vt 0.252524 0.726592
vt 0.568148 0.787367
vt 0.188269 0.781375
vt 0.214575 0.750414
vt 0.555495 0.826352
vt 0.199850 0.820889
vt 0.501231 0.844356
vt 0.253846 0.840502
vt 0.457832 0.840040
vt 0.297562 0.837358
vt 0.783193 0.187449
vt 0.246955 0.187075
vt 0.233625 0.175620
vt 0.394766 0.686125
vt 0.391039 0.611891
vt 0.364838 0.684445
vt 0.391747 0.862097
vt 0.438797 0.870229
vt 0.363377 0.861308
vt 0.435018 0.718280
vt 0.323658 0.715731
vt 0.384658 0.710299
vt 0.433669 0.729661
vt 0.374400 0.708969
vt 0.410995 0.747662
vt 0.427812 0.742828
vt 0.324726 0.727177
vt 0.347028 0.745816
vt 0.330270 0.740536
vt 0.384657 0.795423
vt 0.418086 0.784946
vt 0.372270 0.794472
vt 0.431333 0.817535
vt 0.401605 0.841460
vt 0.324790 0.815460
vt 0.338952 0.783073
vt 0.354026 0.840297
vt 0.825107 0.209762
vt 0.199767 0.214827
vt 0.816266 0.203086
vt 0.209828 0.206161
vt 0.226485 0.183086
vt 0.796021 0.176969
vt 0.802192 0.184609
vt 0.448505 0.804621
vt 0.473386 0.824700
vt 0.307886 0.802031
vt 0.282357 0.821525
vt 0.321237 0.777208
vt 0.423718 0.754191
vt 0.435868 0.779569
vt 0.334089 0.752045
vt 0.319919 0.747250
vt 0.437950 0.749777
vt 0.312907 0.729222
vt 0.440995 0.724383
vt 0.445392 0.731997
vt 0.317510 0.721697
vt 0.455277 0.713731
vt 0.303460 0.710657
vt 0.512485 0.828811
vt 0.242975 0.824574
vt 0.550942 0.811814
vt 0.204839 0.806417
vt 0.552139 0.787682
vt 0.204331 0.782156
vt 0.539407 0.764539
vt 0.542850 0.755753
vt 0.217774 0.759319
vt 0.508439 0.743135
vt 0.249419 0.738732
vt 0.454776 0.761665
vt 0.302729 0.758742
vt 0.286960 0.745020
vt 0.470841 0.748408
vt 0.475403 0.783904
vt 0.281439 0.780511
vt 0.268291 0.766661
vt 0.503673 0.787562
vt 0.494476 0.802470
vt 0.252972 0.783410
vt 0.261790 0.798626
vt 0.516802 0.807339
vt 0.239243 0.802891
vt 0.237920 0.787045
vt 0.518562 0.791602
vt 0.484068 0.628776
vt 0.543385 0.683538
vt 0.276936 0.625067
vt 0.216123 0.678120
vt 0.581052 0.726933
vt 0.177176 0.720426
vt 0.616701 0.759965
vt 0.140379 0.752377
vt 0.660647 0.741167
vt 0.707492 0.759884
vt 0.097038 0.732052
vt 0.677256 0.670436
vt 0.745511 0.652100
vt 0.049526 0.748824
vt 0.083564 0.662038
vt 0.671403 0.592656
vt 0.740843 0.572428
vt 0.019409 0.639749
vt 0.092820 0.589862
vt 0.834705 0.206959
vt 0.051216 0.522659
vt 0.033664 0.564403
vt 0.620420 0.565675
vt 0.498072 0.552315
vt 0.145041 0.562595
vt 0.264218 0.550140
vt 0.369913 0.610196
vt 0.464579 0.342230
vt 0.176788 0.196179
vt 0.770572 0.444261
vt 0.271364 0.473316
vt 0.488870 0.770464
vt 0.834578 0.206879
vn 0.6827 -0.7307 -0.0035
vn 0.6076 -0.6085 -0.5104
vn 0.8001 -0.5999 -0.0029
vn -0.6076 -0.6085 -0.5104
vn -0.6827 -0.7307 -0.0035
vn -0.8001 -0.5999 -0.0029
vn 0.6802 -0.4888 -0.5463
vn 0.8682 -0.4961 -0.0048
vn -0.6802 -0.4888 -0.5463
vn -0.8682 -0.4961 -0.0048
vn 0.1193 -0.4763 -0.8712
vn -0.1193 -0.4763 -0.8712
vn 0.5235 -0.7692 -0.3664
vn 0.0995 -0.6522 -0.7515
vn -0.0995 -0.6522 -0.7515
vn -0.5235 -0.7692 -0.3664
vn 0.1149 -0.8396 -0.5308
vn -0.4563 -0.7101 -0.5362
vn 0.4563 -0.7101 -0.5362
vn -0.1149 -0.8396 -0.5308
vn -0.5539 -0.5406 -0.6332
vn 0.5539 -0.5406 -0.6332
vn -0.6899 -0.7239 -0.0041
vn 0.6899 -0.7239 -0.0041
vn 0.8097 -0.5868 -0.0070
vn -0.2833 -0.8748 -0.3930
vn 0.2833 -0.8748 -0.3930
vn -0.4801 -0.8772 0.0007
vn -0.4560 -0.7207 0.5222
vn 0.4560 -0.7207 0.5222
vn 0.4801 -0.8772 0.0007
vn -0.8097 -0.5868 -0.0070
vn 0.5306 -0.5717 0.6258
vn 0.1031 -0.6644 0.7402
vn -0.5306 -0.5717 0.6258
vn -0.1031 -0.6644 0.7402
vn -0.1257 -0.5253 0.8416
vn 0.1086 -0.8204 0.5614
vn -0.3058 -0.8600 0.4084
vn -0.1086 -0.8204 0.5614
vn 0.5355 -0.7538 0.3808
vn -0.5355 -0.7538 0.3808
vn -0.6102 -0.6181 0.4956
vn 0.6102 -0.6181 0.4956
vn 0.1257 -0.5253 0.8416
vn -0.6682 -0.5148 0.5371
vn 0.6682 -0.5148 0.5371
vn 0.5592 0.5706 0.6014
vn 0.8850 0.4653 -0.0146
vn 0.8943 0.4472 -0.0167
vn -0.5592 0.5706 0.6014
vn -0.8850 0.4653 -0.0146
vn -0.5024 0.5768 0.6441
vn -0.0802 0.5515 0.8303
vn 0.5024 0.5768 0.6441
vn 0.0802 0.5515 0.8303
vn 0.1481 0.5395 0.8289
vn -0.6756 0.4344 0.5957
vn -0.1481 0.5395 0.8289
vn 0.6756 0.4344 0.5957
vn 0.6902 0.4387 0.5754
vn -0.8449 0.5346 -0.0156
vn -0.6902 0.4387 0.5754
vn 0.8449 0.5346 -0.0156
vn 0.8320 0.5547 -0.0117
vn -0.6809 0.4390 -0.5862
vn -0.8320 0.5547 -0.0117
vn 0.6809 0.4390 -0.5862
vn -0.6653 0.4347 -0.6070
vn -0.1481 0.5395 -0.8289
vn 0.1481 0.5395 -0.8289
vn 0.6653 0.4347 -0.6070
vn -0.0802 0.5515 -0.8303
vn 0.4944 0.5762 -0.6508
vn -0.4944 0.5762 -0.6508
vn 0.0802 0.5515 -0.8303
vn 0.5482 0.5692 -0.6128
vn -0.5482 0.5692 -0.6128
vn 0.1836 -0.9830 -0.0053
vn 0.3574 -0.9268 -0.1156
vn 0.4008 -0.9162 -0.0019
vn -0.4008 -0.9162 -0.0019
vn -0.3574 -0.9268 -0.1156
vn -0.1836 -0.9830 -0.0053
vn 0.2070 -0.9616 -0.1803
vn -0.2070 -0.9616 -0.1803
vn 0.0167 -0.9941 -0.1071
vn -0.0167 -0.9941 -0.1071
vn -0.0624 -0.9981 -0.0008
vn 0.0624 -0.9981 -0.0008
vn 0.0232 -0.9943 0.1041
vn -0.0232 -0.9943 0.1041
vn 0.2074 -0.9634 0.1700
vn -0.2074 -0.9634 0.1700
vn 0.3535 -0.9288 0.1109
vn -0.3535 -0.9288 0.1109
vn 0.1554 -0.6323 -0.7590
vn 0.0000 -0.2523 -0.9677
vn 0.1596 -0.1529 -0.9753
vn -0.1554 -0.6323 -0.7590
vn 0.0000 -0.6316 -0.7753
vn 0.3502 -0.6847 -0.6392
vn 0.5267 -0.1611 -0.8347
vn -0.3502 -0.6847 -0.6392
vn -0.1596 -0.1529 -0.9753
vn 0.9457 -0.1977 -0.2579
vn -0.9457 -0.1977 -0.2579
vn -0.5267 -0.1611 -0.8347
vn 0.9728 -0.2087 0.1003
vn 0.5557 -0.8000 -0.2264
vn -0.5557 -0.8000 -0.2264
vn -0.9728 -0.2087 0.1003
vn 0.9557 -0.1565 0.2492
vn 0.5652 -0.8244 -0.0297
vn -0.5652 -0.8244 -0.0297
vn -0.9557 -0.1565 0.2492
vn 0.2749 -0.1846 -0.9436
vn 0.3842 -0.7286 -0.5671
vn -0.0036 -0.9975 -0.0700
vn -0.3842 -0.7286 -0.5671
vn -0.2749 -0.1846 -0.9436
vn 0.0036 -0.9975 -0.0700
vn 0.5328 -0.6413 -0.5522
vn 0.3489 0.0082 -0.9371
vn -0.5328 -0.6413 -0.5522
vn -0.4991 -0.7807 -0.3761
vn 0.5666 -0.7598 -0.3188
vn 0.4991 -0.7807 -0.3761
vn -0.5666 -0.7598 -0.3188
vn 0.5543 -0.8262 -0.1004
vn 0.6945 -0.5937 -0.4064
vn -0.5543 -0.8262 -0.1004
vn -0.4607 -0.8757 -0.1448
vn 0.5171 -0.2125 0.8291
vn 0.4607 -0.8757 -0.1448
vn -0.5171 -0.2125 0.8291
vn -0.6474 -0.5304 0.5473
vn 0.5976 -0.1646 0.7847
vn 0.6474 -0.5304 0.5473
vn -0.5976 -0.1646 0.7847
vn -0.5620 -0.5772 0.5924
vn 0.2965 -0.7208 0.6265
vn 0.5620 -0.5772 0.5924
vn -0.2965 -0.7208 0.6265
vn -0.3431 -0.7665 0.5429
vn 0.2313 -0.1751 0.9570
vn 0.3431 -0.7665 0.5429
vn 0.4487 -0.7364 0.5064
vn -0.8242 -0.1473 0.5468
vn -0.4487 -0.7364 0.5064
vn 0.8242 -0.1473 0.5468
vn 0.6627 -0.5787 0.4754
vn -0.0000 -0.2673 0.9636
vn -0.6627 -0.5787 0.4754
vn 0.5774 -0.5774 0.5774
vn 0.2582 -0.9578 -0.1265
vn 0.4747 -0.7695 -0.4272
vn 0.3679 -0.8856 -0.2836
vn -0.2582 -0.9578 -0.1265
vn -0.4747 -0.7695 -0.4272
vn -0.3505 -0.8379 -0.4185
vn 0.1092 -0.8670 -0.4862
vn 0.3505 -0.8379 -0.4185
vn -0.1092 -0.8670 -0.4862
vn -0.0790 -0.8337 -0.5465
vn 0.1490 -0.9767 -0.1542
vn -0.0630 -0.7923 -0.6069
vn 0.0790 -0.8337 -0.5465
vn -0.1490 -0.9767 -0.1542
vn -0.0237 -0.5970 -0.8019
vn 0.2254 -0.9050 -0.3608
vn 0.0237 -0.5970 -0.8019
vn 0.0630 -0.7923 -0.6069
vn 0.3588 -0.9258 -0.1192
vn -0.2254 -0.9050 -0.3608
vn 0.4602 -0.8723 -0.1651
vn -0.3588 -0.9258 -0.1192
vn 0.4279 -0.8156 -0.3895
vn -0.4602 -0.8723 -0.1651
vn 0.3322 -0.8690 -0.3667
vn -0.4279 -0.8156 -0.3895
vn -0.1522 -0.9549 -0.2549
vn -0.3322 -0.8690 -0.3667
vn 0.0000 -0.9979 0.0643
vn 0.1522 -0.9549 -0.2549
vn 0.0316 -0.9835 -0.1782
vn -0.0316 -0.9835 -0.1782
vn 0.0000 -0.8998 -0.4363
vn -0.0000 -0.9750 -0.2220
vn -0.2006 -0.9703 -0.1350
vn 0.2006 -0.9703 -0.1350
vn -0.2393 -0.9230 -0.3012
vn 0.2393 -0.9230 -0.3012
vn -0.0589 -0.9238 -0.3784
vn 0.0589 -0.9238 -0.3784
vn 0.1307 -0.9388 -0.3187
vn -0.1307 -0.9388 -0.3187
vn 0.1460 -0.9820 -0.1202
vn 0.5937 -0.7974 0.1082
vn 0.1815 -0.9823 -0.0452
vn -0.1815 -0.9823 -0.0452
vn -0.5937 -0.7974 0.1082
vn -0.1460 -0.9820 -0.1202
vn 0.0000 -0.9985 0.0556
vn 0.1341 -0.9909 0.0063
vn 0.5003 -0.7520 -0.4293
vn -0.1341 -0.9909 0.0063
vn 0.0000 -1.0000 0.0000
vn 0.0000 -0.9994 -0.0341
vn -0.0000 -0.8096 -0.5870
vn 0.9304 -0.3448 -0.1242
vn 0.5836 -0.4235 -0.6929
vn -0.5836 -0.4235 -0.6929
vn -0.9304 -0.3448 -0.1242
vn -0.5003 -0.7520 -0.4293
vn 0.9678 0.0624 0.2440
vn 0.9904 -0.1370 0.0154
vn -0.9904 -0.1370 0.0154
vn -0.9678 0.0624 0.2440
vn 0.0776 0.4187 0.9048
vn 0.0907 0.4017 0.9113
vn 0.0693 0.4294 0.9004
vn -0.0776 0.4187 0.9048
vn -0.0907 0.4017 0.9113
vn -0.1018 0.3870 0.9165
vn -1.0000 0.0000 0.0000
vn 0.6709 -0.4150 0.6145
vn 0.6905 -0.4708 0.5492
vn 0.3997 -0.5948 0.6974
vn -0.0000 -0.5011 -0.8654
vn 0.0000 -0.1961 -0.9806
vn 0.0000 -0.8764 -0.4815
vn -0.1833 -0.7890 -0.5864
vn -0.6709 -0.4150 0.6145
vn -0.1858 -0.7815 0.5956
vn -0.3997 -0.5948 0.6974
vn 0.1858 -0.7815 0.5956
vn 0.3611 -0.8047 0.4713
vn 0.7671 -0.3485 0.5386
vn -0.3611 -0.8047 0.4713
vn -0.7671 -0.3485 0.5386
vn -0.4488 -0.8364 -0.3147
vn 0.3984 -0.5183 -0.7567
vn 0.1833 -0.7890 -0.5864
vn -0.3984 -0.5183 -0.7567
vn 0.4488 -0.8364 -0.3147
vn 0.0000 -0.9940 -0.1091
vn -0.5059 -0.8596 0.0716
vn 0.5059 -0.8596 0.0716
vn -0.3543 -0.5976 -0.7192
vn -0.5774 -0.5774 -0.5774
vn -0.3088 -0.5967 -0.7407
vn 0.5774 -0.5774 -0.5774
vn 0.3543 -0.5976 -0.7192
vn 0.3088 -0.5967 -0.7407
vn 0.8095 -0.5816 0.0807
vn -0.8095 -0.5816 0.0807
vn -0.6507 -0.7447 0.1488
vn 0.6507 -0.7447 0.1488
vn 0.9278 -0.1209 0.3530
vn -0.9278 -0.1209 0.3530
vn 0.9306 -0.1263 0.3435
vn -0.9306 -0.1263 0.3435
vn 0.9034 -0.2404 0.3551
vn -0.9034 -0.2404 0.3551
vn 0.0818 -0.8437 -0.5305
vn -0.0818 -0.8437 -0.5305
vn 0.0000 -0.2732 -0.9619
vn -0.1545 -0.9724 -0.1748
vn 0.1545 -0.9724 -0.1748
vn -0.2671 -0.9494 0.1654
vn 0.2671 -0.9494 0.1654
vn -0.0000 -0.9380 -0.3465
vn -0.4524 -0.2128 0.8661
vn 0.0000 -0.2747 0.9615
vn 0.4524 -0.2128 0.8661
vn 0.4255 -0.2486 0.8702
vn -0.9015 -0.0813 0.4251
vn -0.4255 -0.2486 0.8702
vn 0.9015 -0.0813 0.4251
vn -0.9448 -0.0362 0.3257
vn 1.0000 0.0000 0.0000
vn 0.9448 -0.0362 0.3257
vn 0.3051 -0.1181 -0.9450
vn -0.3051 -0.1181 -0.9450
vn 0.0000 -0.1240 -0.9923
vn 0.0000 -0.9544 -0.2985
vn 0.0534 -0.9511 -0.3041
vn 0.0601 -0.9459 -0.3188
vn -0.0534 -0.9511 -0.3041
vn -0.0601 -0.9459 -0.3188
vn 0.1353 -0.9277 -0.3479
vn -0.1353 -0.9277 -0.3479
vn -0.5326 -0.7531 -0.3862
vn -0.4456 -0.8843 -0.1393
vn 0.5326 -0.7531 -0.3862
vn 0.4456 -0.8843 -0.1393
vn -0.2651 -0.9618 0.0676
vn 0.2651 -0.9618 0.0676
vn 0.1588 -0.9816 -0.1065
vn -0.1588 -0.9816 -0.1065
vn 0.4117 -0.5405 -0.7337
vn 0.1195 -0.7430 -0.6585
vn -0.4117 -0.5405 -0.7337
vn -0.1195 -0.7430 -0.6585
vn 0.5357 -0.6450 -0.5450
vn -0.5357 -0.6450 -0.5450
vn 0.2943 -0.9502 -0.1020
vn -0.2943 -0.9502 -0.1020
vn 0.1776 -0.9822 -0.0608
vn -0.1776 -0.9822 -0.0608
vn -0.2944 -0.9557 0.0046
vn 0.3849 -0.6476 0.6577
vn 0.2944 -0.9557 0.0046
vn -0.3849 -0.6476 0.6577
vn -0.3504 -0.5770 0.7377
vn 0.2036 -0.9736 0.1032
vn 0.3504 -0.5770 0.7377
vn -0.2036 -0.9736 0.1032
vn 0.1435 -0.9849 0.0966
vn -0.1435 -0.9849 0.0966
vn 0.2886 -0.9160 -0.2786
vn -0.2886 -0.9160 -0.2786
vn -0.4508 -0.7614 -0.4658
vn 0.1133 -0.9426 -0.3142
vn -0.1133 -0.9426 -0.3142
vn -0.2741 -0.4391 -0.8556
vn -0.2639 -0.4130 -0.8717
vn 0.2741 -0.4391 -0.8556
vn -0.1423 -0.8002 -0.5826
vn 0.2639 -0.4130 -0.8717
vn 0.1423 -0.8002 -0.5826
vn -0.4229 -0.8997 -0.1078
vn 0.4229 -0.8997 -0.1078
vn -0.1921 -0.9625 0.1914
vn 0.1921 -0.9625 0.1914
vn -0.1443 -0.7972 0.5862
vn -0.1653 -0.7751 0.6098
vn 0.1443 -0.7972 0.5862
vn 0.1653 -0.7751 0.6098
vn 0.1431 -0.8169 0.5587
vn 0.1862 -0.8111 0.5545
vn -0.1431 -0.8169 0.5587
vn 0.4323 -0.6877 0.5833
vn 0.4482 -0.6832 0.5765
vn -0.1862 -0.8111 0.5545
vn -0.4323 -0.6877 0.5833
vn 0.6434 -0.6726 0.3656
vn 0.6881 -0.6614 0.2985
vn -0.6434 -0.6726 0.3656
vn -0.6881 -0.6614 0.2985
vn 0.7894 -0.5793 -0.2032
vn 0.4508 -0.7614 -0.4658
vn -0.7894 -0.5793 -0.2032
vn 0.8143 -0.5510 -0.1822
vn 0.8016 -0.5977 0.0110
vn -0.8016 -0.5977 0.0110
vn -0.8143 -0.5510 -0.1822
vn 0.7981 -0.6020 0.0243
vn -0.7981 -0.6020 0.0243
vn -0.6429 0.5332 0.5500
vn 0.0000 0.1644 0.9864
vn 0.6429 0.5332 0.5500
vn -0.4792 0.7129 0.5120
vn 0.4792 0.7129 0.5120
vn -0.6092 0.4287 0.6671
vn -0.2313 -0.1751 0.9570
vn -0.1217 0.7499 0.6503
vn 0.1217 0.7499 0.6503
vn -0.2717 0.2909 0.9174
vn 0.2717 0.2909 0.9174
vn -0.3456 0.2192 0.9125
vn 0.3009 0.2412 0.9226
vn 0.3456 0.2192 0.9125
vn -0.3009 0.2412 0.9226
vn 0.7648 0.5852 -0.2696
vn 0.8720 0.4753 0.1176
vn 0.8873 0.4412 0.1343
vn -0.7648 0.5852 -0.2696
vn -0.8720 0.4753 0.1176
vn -0.9302 0.2024 -0.3062
vn 0.5444 0.0533 -0.8372
vn 0.9302 0.2024 -0.3062
vn -0.5444 0.0533 -0.8372
vn 0.4565 0.3930 -0.7982
vn 0.4720 0.1768 -0.8637
vn -0.4720 0.1768 -0.8637
vn -0.4565 0.3930 -0.7982
vn -0.0000 0.6367 -0.7711
vn 0.2771 0.9078 -0.3147
vn 0.0000 0.9770 -0.2133
vn -0.2771 0.9078 -0.3147
vn -0.5671 0.2185 -0.7942
vn 0.1514 0.9769 -0.1510
vn 0.0000 0.9548 -0.2974
vn -0.1514 0.9769 -0.1510
vn 0.0675 0.6181 -0.7832
vn 0.0000 0.4716 -0.8818
vn -0.0675 0.6181 -0.7832
vn 0.5551 0.6820 -0.4762
vn -0.5551 0.6820 -0.4762
vn 0.6204 0.7798 0.0835
vn -0.6204 0.7798 0.0835
vn 0.7799 0.6259 -0.0105
vn -0.7799 0.6259 -0.0105
vn 0.8941 0.4076 0.1858
vn 0.8957 0.3624 0.2578
vn -0.8957 0.3624 0.2578
vn 0.9188 0.2570 0.2995
vn -0.9188 0.2570 0.2995
vn -0.9476 0.1880 0.2582
vn 0.9422 0.0704 0.3276
vn -0.9422 0.0704 0.3276
vn 0.1657 0.3051 -0.9378
vn -0.1657 0.3051 -0.9378
vn -0.3489 0.0082 -0.9371
vn 0.4455 0.8204 -0.3584
vn 0.0000 0.7226 -0.6913
vn 0.0000 0.9524 -0.3049
vn -0.4455 0.8204 -0.3584
vn -0.5223 0.5477 -0.6536
vn 0.5223 0.5477 -0.6536
vn 0.0000 0.3365 -0.9417
vn -0.5071 0.2033 -0.8376
vn 0.5727 -0.0120 -0.8197
vn 0.0000 0.1833 -0.9831
vn -0.5727 -0.0120 -0.8197
vn 0.5671 0.2185 -0.7942
vn -0.6235 -0.3966 -0.6737
vn 0.7211 -0.0651 -0.6898
vn 0.9850 -0.0631 -0.1605
vn -0.7211 -0.0651 -0.6898
vn -0.9850 -0.0631 -0.1605
vn 0.4730 0.8632 0.1763
vn 0.0000 0.9310 0.3650
vn -0.4730 0.8632 0.1763
vn 0.4442 -0.5271 0.7244
vn -0.0000 -0.0226 0.9997
vn -0.0000 -0.5568 0.8306
vn -0.4442 -0.5271 0.7244
vn -0.4135 -0.0395 0.9096
vn 0.3913 0.4268 0.8153
vn 0.0000 0.5514 0.8343
vn -0.3913 0.4268 0.8153
vn 0.3404 -0.1113 0.9337
vn 0.4444 -0.4250 0.7886
vn -0.3404 -0.1113 0.9337
vn -0.4444 -0.4250 0.7886
vn 0.7418 -0.4279 0.5164
vn 0.6682 -0.3195 0.6719
vn -0.7418 -0.4279 0.5164
vn -0.6682 -0.3195 0.6719
vn 0.8486 0.0140 0.5288
vn 0.6784 0.0695 0.7314
vn -0.8486 0.0140 0.5288
vn -0.6784 0.0695 0.7314
vn 0.8722 0.3747 0.3146
vn 0.6075 0.5536 0.5696
vn -0.8722 0.3747 0.3146
vn -0.6075 0.5536 0.5696
vn 0.6197 0.7825 -0.0605
vn 0.7240 0.6790 -0.1214
vn -0.6197 0.7825 -0.0605
vn 0.4135 -0.0395 0.9096
vn 0.3406 -0.3223 0.8832
vn -0.3406 -0.3223 0.8832
vn 0.0000 -0.8485 0.5293
vn -0.1681 0.9806 0.1005
vn 0.1681 0.9806 0.1005
vn 0.1225 -0.8895 0.4402
vn -0.1225 -0.8895 0.4402
vn 0.0000 -0.9823 0.1871
vn 0.9899 -0.0224 0.1400
vn -0.9899 -0.0224 0.1400
vn 0.9983 0.0502 -0.0283
vn -0.9983 0.0502 -0.0283
vn 0.9595 0.1738 0.2216
vn -0.9595 0.1738 0.2216
vn 0.5071 0.2033 -0.8376
vn 0.5790 -0.1427 -0.8027
vn -0.5790 -0.1427 -0.8027
vn -0.5633 0.1213 -0.8173
vn 0.3196 0.1194 -0.9400
vn -0.3196 0.1194 -0.9400
vn 0.6235 -0.3966 -0.6737
vn 0.2637 -0.8533 -0.4499
vn 0.2903 -0.8189 -0.4951
vn -0.2903 -0.8189 -0.4951
vn -0.2637 -0.8533 -0.4499
vn 0.3255 0.7284 -0.6029
vn -0.3255 0.7284 -0.6029
vn -0.5292 0.6817 -0.5051
vn 0.5633 0.1213 -0.8173
vn 0.5292 0.6817 -0.5051
vn 0.2091 -0.8916 0.4016
vn 0.5512 -0.8307 -0.0788
vn 0.4343 -0.8658 0.2485
vn -0.2091 -0.8916 0.4016
vn -0.5512 -0.8307 -0.0788
vn -0.4493 -0.8926 -0.0383
vn 0.3215 -0.9424 -0.0923
vn 0.3707 -0.9149 0.1595
vn -0.3215 -0.9424 -0.0923
vn -0.4343 -0.8658 0.2485
vn -0.3707 -0.9149 0.1595
vn 0.2183 -0.9759 -0.0025
vn -0.2183 -0.9759 -0.0025
vn 0.1545 -0.9802 -0.1239
vn -0.1545 -0.9802 -0.1239
vn 0.2987 -0.9541 -0.0200
vn -0.2987 -0.9541 -0.0200
vn -0.3386 -0.9409 -0.0024
vn 0.3386 -0.9409 -0.0024
vn 0.5992 -0.7751 -0.2006
vn -0.5992 -0.7751 -0.2006
vn -0.5384 -0.7893 0.2953
vn 0.5379 -0.7860 0.3047
vn 0.5957 -0.7049 -0.3850
vn -0.5379 -0.7860 0.3047
vn -0.5957 -0.7049 -0.3850
vn 0.5384 -0.7893 0.2953
vn 0.1629 -0.4870 0.8581
vn -0.1629 -0.4870 0.8581
vn -0.5509 -0.5637 0.6154
vn -0.1868 -0.2351 0.9538
vn 0.1868 -0.2351 0.9538
vn 0.5509 -0.5637 0.6154
vn -0.9848 -0.1426 -0.0996
vn 0.9848 -0.1426 -0.0996
vn 0.7622 0.0193 0.6471
vn -0.1496 -0.6495 -0.7455
vn 0.1496 -0.6495 -0.7455
vn 0.5605 -0.4991 -0.6609
vn -0.5605 -0.4991 -0.6609
vn 0.6842 -0.4722 -0.5558
vn -0.6842 -0.4722 -0.5558
vn 0.8572 0.1483 -0.4931
vn -0.8572 0.1483 -0.4931
vn -0.9428 -0.3335 -0.0036
vn -0.1990 -0.9384 0.2825
vn -0.1921 -0.9388 0.2859
vn -0.1788 -0.9395 0.2923
vn 0.1990 -0.9384 0.2825
vn 0.1921 -0.9388 0.2859
vn 0.2175 -0.9370 0.2733
vn 0.1406 -0.9893 0.0378
vn 0.4493 -0.8926 -0.0383
vn -0.1406 -0.9893 0.0378
vn 0.5998 -0.6139 0.5131
vn 0.9428 -0.3335 -0.0036
vn -0.5998 -0.6139 0.5131
vn 0.9579 -0.1627 -0.2366
vn 0.6310 -0.3649 -0.6846
vn -0.9579 -0.1627 -0.2366
vn 0.4111 -0.7915 0.4522
vn 0.3568 -0.8477 0.3925
vn -0.3568 -0.8477 0.3925
vn -0.4111 -0.7915 0.4522
vn 0.8303 -0.2850 -0.4790
vn 0.7941 -0.2258 -0.5642
vn 0.6864 -0.3746 -0.6234
vn -0.8303 -0.2850 -0.4790
vn -0.7941 -0.2258 -0.5642
vn 0.7261 -0.4732 -0.4989
vn 0.6571 -0.6496 -0.3824
vn -0.7261 -0.4732 -0.4989
vn -0.6864 -0.3746 -0.6234
vn -0.6571 -0.6496 -0.3824
vn 0.8271 0.1802 0.5323
vn -0.8271 0.1802 0.5323
vn 0.6593 -0.5881 -0.4685
vn 0.6482 -0.6347 -0.4206
vn -0.6593 -0.5881 -0.4685
vn -0.6482 -0.6347 -0.4206
vn -0.7526 -0.1254 -0.6464
vn 0.7022 -0.1170 -0.7022
vn 0.7526 -0.1254 -0.6464
vn -0.7022 -0.1170 -0.7022
vn 0.6044 -0.0112 0.7966
vn 0.1723 0.0370 0.9843
vn 0.1240 -0.0207 0.9921
vn -0.6044 -0.0112 0.7966
vn -0.1723 0.0370 0.9843
vn -0.7243 -0.0192 0.6892
vn 0.9327 -0.1350 0.3344
vn 0.7243 -0.0192 0.6892
vn -0.9327 -0.1350 0.3344
vn -0.9251 -0.1542 0.3469
vn 0.6644 -0.0541 -0.7454
vn 0.6213 -0.1036 -0.7767
vn -0.6644 -0.0541 -0.7454
vn -0.6310 -0.3649 -0.6846
vn -0.6213 -0.1036 -0.7767
vn -0.1103 -0.2562 0.9603
vn -0.2711 -0.3485 0.8973
vn 0.1103 -0.2562 0.9603
vn 0.2711 -0.3485 0.8973
vn 0.4618 -0.8237 -0.3291
vn -0.4618 -0.8237 -0.3291
vn 0.2752 -0.3853 -0.8808
vn -0.2752 -0.3853 -0.8808
vn -0.8526 0.1660 -0.4955
vn -0.8966 0.4325 -0.0946
vn 0.8526 0.1660 -0.4955
vn 0.8966 0.4325 -0.0946
vn -0.7446 0.5186 0.4203
vn -0.7622 0.0193 0.6471
vn 0.7446 0.5186 0.4203
vn -0.4622 0.0976 0.8814
vn 0.4622 0.0976 0.8814
vn -0.2556 -0.8119 0.5249
vn 0.1951 -0.9800 0.0390
vn 0.0738 -0.9972 0.0108
vn 0.2556 -0.8119 0.5249
vn -0.1951 -0.9800 0.0390
vn -0.4085 -0.9039 0.1273
vn 0.4085 -0.9039 0.1273
vn 0.3347 -0.9423 -0.0046
vn -0.3347 -0.9423 -0.0046
vn -0.4448 -0.8907 -0.0937
vn 0.3144 -0.9436 -0.1038
vn 0.3343 -0.9364 0.1068
vn -0.3144 -0.9436 -0.1038
vn -0.3343 -0.9364 0.1068
vn 0.2897 -0.9035 0.3158
vn -0.2897 -0.9035 0.3158
vn -0.3831 -0.9211 -0.0685
vn 0.1796 -0.9829 -0.0404
vn -0.1796 -0.9829 -0.0404
vn -0.0738 -0.9972 0.0108
vn 0.5223 -0.8442 -0.1202
vn 0.6693 -0.7208 0.1802
vn -0.5223 -0.8442 -0.1202
vn -0.6693 -0.7208 0.1802
vn 0.4918 -0.8486 -0.1950
vn 0.3831 -0.9211 -0.0685
vn 0.5507 -0.8305 0.0834
vn -0.4918 -0.8486 -0.1950
vn 0.4745 -0.8104 0.3437
vn -0.4745 -0.8104 0.3437
vn -0.5507 -0.8305 0.0834
vn 0.2451 0.0870 -0.9656
vn -0.0786 0.1924 -0.9782
vn 0.3670 0.0586 -0.9284
vn 0.0786 0.1924 -0.9782
vn -0.2451 0.0870 -0.9656
vn -0.3670 0.0586 -0.9284
vn 0.7240 -0.1810 -0.6657
vn 0.7887 -0.2427 -0.5648
vn -0.7240 -0.1810 -0.6657
vn -0.7887 -0.2427 -0.5648
vn 0.9800 -0.1673 0.1073
vn 0.9634 -0.1040 0.2471
vn -0.9800 -0.1673 0.1073
vn 0.8423 0.0466 0.5371
vn 0.8465 0.0595 0.5291
vn -0.9634 -0.1040 0.2471
vn -0.8423 0.0466 0.5371
vn -0.2282 0.2791 0.9328
vn -0.3102 0.2303 0.9223
vn -0.3779 0.1628 0.9114
vn 0.2282 0.2791 0.9328
vn 0.3102 0.2303 0.9223
vn 0.2146 0.3157 0.9243
vn -0.6507 0.0463 0.7579
vn -0.6280 -0.0093 0.7782
vn 0.3779 0.1628 0.9114
vn 0.6507 0.0463 0.7579
vn -0.3907 0.9205 -0.0029
vn -0.5320 0.8467 -0.0064
vn -0.3579 0.9334 -0.0259
vn 0.3907 0.9205 -0.0029
vn 0.5320 0.8467 -0.0064
vn 0.5470 0.8370 -0.0144
vn -0.0762 0.9971 -0.0059
vn 0.0762 0.9971 -0.0059
vn 0.3579 0.9334 -0.0259
vn -0.1053 0.9930 -0.0534
vn 0.4046 0.9141 0.0266
vn -0.4046 0.9141 0.0266
vn 0.1053 0.9930 -0.0534
vn -0.7659 -0.0290 0.6423
vn -0.8073 -0.0041 0.5901
vn 0.7659 -0.0290 0.6423
vn 0.6280 -0.0093 0.7782
vn 0.4841 0.8474 -0.2179
vn -0.4841 0.8474 -0.2179
vn -0.7240 0.6790 -0.1214
vn -0.0089 0.0774 -0.9970
vn 0.0089 0.0774 -0.9970
vn 0.3058 -0.8600 0.4084
vn -0.8943 0.4472 -0.0167
vn -0.6945 -0.5937 -0.4064
vn -0.5774 -0.5774 0.5774
vn -0.3679 -0.8856 -0.2836
vn 0.1018 0.3870 0.9165
vn -0.0693 0.4294 0.9004
vn -0.6905 -0.4708 0.5492
vn -0.6667 -0.3333 0.6667
vn 0.6667 -0.3333 0.6667
vn -0.0631 -0.5681 -0.8206
vn 0.0631 -0.5681 -0.8206
vn 0.9586 -0.2767 0.0664
vn -0.9586 -0.2767 0.0664
vn 0.0000 -0.9578 -0.2873
vn -0.4482 -0.6832 0.5765
vn 0.6092 0.4287 0.6671
vn 0.2760 0.2915 0.9159
vn -0.2760 0.2915 0.9159
vn -0.8873 0.4412 0.1343
vn -0.8941 0.4076 0.1858
vn 0.9476 0.1880 0.2582
vn -0.2638 0.1871 0.9462
vn 0.2638 0.1871 0.9462
vn -0.2175 -0.9370 0.2733
vn 0.1788 -0.9395 0.2923
vn 0.5313 -0.6134 0.5844
vn -0.5313 -0.6134 0.5844
vn -0.1240 -0.0207 0.9921
vn 0.9251 -0.1542 0.3469
vn 0.4448 -0.8907 -0.0937
vn -0.8465 0.0595 0.5291
vn -0.2146 0.3157 0.9243
vn -0.5470 0.8370 -0.0144
vn 0.8073 -0.0041 0.5901
vn 0.6844 0.7088 -0.1711
vn -0.6844 0.7088 -0.1711
f 47/1/1 3/2/2 45/3/3
f 4/4/4 48/5/5 46/6/6
f 45/3/3 5/7/7 43/8/8
f 6/9/9 46/6/6 44/10/10
f 3/2/2 7/11/11 5/7/7
f 8/12/12 4/4/4 6/9/9
f 1/13/13 9/14/14 3/2/2
f 10/15/15 2/16/16 4/4/4
f 11/17/17 15/18/18 9/14/14
f 16/19/19 12/20/20 10/15/15
f 9/14/14 17/21/21 7/11/11
f 18/22/22 10/15/15 8/12/12
f 21/23/23 17/21/21 15/18/18
f 22/24/24 18/22/22 20/25/25
f 13/26/26 21/23/23 15/18/18
f 22/24/24 14/27/27 16/19/19
f 23/28/28 27/29/29 21/23/23
f 28/30/30 24/31/31 22/24/24
f 27/29/29 19/32/32 21/23/23
f 28/30/30 20/25/25 30/33/33
f 33/34/34 29/35/35 27/29/29
f 34/36/36 30/33/33 32/37/37
f 35/38/38 27/29/29 25/39/39
f 36/40/40 28/30/30 34/36/36
f 37/41/41 33/34/34 35/38/38
f 38/42/42 34/36/36 40/43/43
f 39/44/44 31/45/45 33/34/34
f 40/43/43 32/37/37 42/46/46
f 45/3/3 41/47/47 39/44/44
f 46/6/6 42/46/46 44/10/10
f 47/1/1 39/44/44 37/41/41
f 48/5/5 40/43/43 46/6/6
f 37/41/48 49/48/49 47/1/50
f 38/42/51 50/49/52 52/50/53
f 35/38/54 51/51/55 37/41/48
f 36/40/56 52/50/53 54/52/57
f 25/39/58 53/53/59 35/38/54
f 26/54/60 54/52/57 56/55/61
f 23/28/62 55/56/63 25/39/58
f 24/31/64 56/55/61 58/57/65
f 23/28/62 59/58/66 57/59/67
f 60/60/68 24/31/64 58/57/65
f 13/26/69 63/61/70 59/58/66
f 64/62/71 14/27/72 60/60/68
f 11/17/73 65/63/74 63/61/70
f 66/64/75 12/20/76 64/62/71
f 1/13/77 49/48/49 65/63/74
f 50/49/52 2/16/78 66/64/75
f 61/65/79 65/63/80 49/48/81
f 50/49/82 66/64/83 62/66/84
f 63/61/85 65/63/80 61/65/79
f 62/66/84 66/64/83 64/62/86
f 61/65/79 59/58/87 63/61/85
f 64/62/86 60/60/88 62/66/84
f 61/65/79 57/59/89 59/58/87
f 60/60/88 58/57/90 62/66/84
f 61/65/79 55/56/91 57/59/89
f 58/57/90 56/55/92 62/66/84
f 61/65/79 53/53/93 55/56/91
f 56/55/92 54/52/94 62/66/84
f 61/65/79 51/51/95 53/53/93
f 54/52/94 52/50/96 62/66/84
f 61/65/79 49/48/81 51/51/95
f 52/50/96 50/49/82 62/66/84
f 174/67/97 91/68/98 89/69/99
f 175/70/100 91/68/98 176/71/101
f 172/72/102 89/69/99 87/73/103
f 173/74/104 90/75/105 175/70/100
f 85/76/106 172/72/102 87/73/103
f 173/74/104 86/77/107 88/78/108
f 83/79/109 170/80/110 85/76/106
f 171/81/111 84/82/112 86/77/107
f 81/83/113 168/84/114 83/79/109
f 169/85/115 82/86/116 84/82/112
f 79/87/117 146/88/118 164/89/119
f 147/90/120 80/91/121 165/92/122
f 94/93/123 146/88/118 92/94/124
f 95/95/125 147/90/120 149/96/126
f 94/93/123 150/97/127 148/98/128
f 151/99/129 95/95/125 149/96/126
f 98/100/130 150/97/127 96/101/131
f 99/102/132 151/99/129 153/103/133
f 100/104/134 152/105/135 98/100/130
f 101/106/136 153/103/133 155/107/137
f 102/108/138 154/109/139 100/104/134
f 103/110/140 155/107/137 157/111/141
f 102/108/138 158/112/142 156/113/143
f 159/114/144 103/110/140 157/111/141
f 106/115/145 158/112/142 104/116/146
f 107/117/147 159/114/144 161/118/148
f 108/119/149 160/120/150 106/115/145
f 109/121/151 161/118/148 163/122/152
f 67/123/153 162/124/154 108/119/149
f 67/123/153 163/122/152 68/125/155
f 128/126/156 162/124/157 110/127/158
f 129/128/159 163/122/160 161/118/161
f 128/126/156 158/112/162 160/120/163
f 159/114/164 129/128/159 161/118/161
f 156/113/165 179/129/166 126/130/167
f 157/111/168 180/131/169 159/114/164
f 154/109/170 126/130/167 124/132/171
f 155/107/172 127/133/173 157/111/168
f 152/105/135 124/132/171 122/134/174
f 153/103/133 125/135/175 155/107/172
f 150/97/127 122/134/174 120/136/176
f 151/99/129 123/137/177 153/103/133
f 148/98/128 120/136/176 118/138/178
f 149/96/126 121/139/179 151/99/129
f 146/88/118 118/138/178 116/140/180
f 147/90/120 119/141/181 149/96/126
f 164/89/119 116/140/180 114/142/182
f 165/92/122 117/143/183 147/90/120
f 114/142/182 177/144/184 164/89/119
f 177/144/184 115/145/185 165/92/122
f 162/124/157 112/146/186 110/127/158
f 163/122/160 113/147/187 68/125/188
f 112/146/186 178/148/189 183/149/190
f 178/148/189 113/147/187 184/150/191
f 181/151/192 178/148/189 177/144/184
f 182/152/193 178/148/189 184/150/191
f 135/153/194 176/71/101 174/67/97
f 176/71/101 136/154/195 175/70/100
f 133/155/196 174/67/97 172/72/102
f 175/70/100 134/156/197 173/74/104
f 133/155/196 170/80/110 131/157/198
f 134/156/197 171/81/111 173/74/104
f 166/158/199 185/159/200 168/84/114
f 186/160/201 167/161/202 169/85/115
f 131/157/198 168/84/114 185/159/200
f 169/85/115 132/162/203 186/160/201
f 190/163/204 187/164/205 144/165/206
f 190/163/204 188/166/207 189/167/208
f 187/164/205 69/168/209 185/159/200
f 188/166/207 69/168/209 189/167/208
f 131/157/198 69/168/209 130/169/210
f 132/162/203 69/168/209 186/160/201
f 142/170/211 191/171/212 144/165/206
f 192/172/213 143/173/214 145/174/215
f 140/175/216 193/176/217 142/170/211
f 194/177/218 141/178/219 143/173/214
f 197/179/220 140/175/221 139/180/222
f 198/181/223 141/178/224 196/182/225
f 71/183/226 139/180/226 138/184/226
f 71/183/227 139/180/228 198/181/229
f 144/165/206 70/185/230 190/163/231
f 145/174/215 70/185/230 192/172/213
f 191/171/212 208/186/232 70/185/230
f 192/172/213 208/186/232 207/187/233
f 71/183/234 200/188/235 197/179/236
f 201/189/237 71/183/227 198/181/229
f 197/179/236 202/190/238 195/191/239
f 203/192/240 198/181/229 196/182/241
f 202/190/238 193/176/217 195/191/239
f 203/192/240 194/177/218 205/193/242
f 193/176/243 206/194/244 191/171/212
f 207/187/233 194/177/245 192/172/213
f 204/195/246 200/188/235 199/196/247
f 205/193/242 201/189/237 203/192/240
f 199/196/247 206/194/244 204/195/246
f 207/187/233 199/196/247 205/193/242
f 139/180/248 164/89/119 177/144/184
f 165/92/122 139/180/249 177/144/184
f 140/175/250 211/197/251 164/89/252
f 212/198/253 141/178/254 165/92/255
f 144/165/206 211/197/256 142/170/211
f 145/174/215 212/198/257 214/199/258
f 187/164/205 213/200/259 144/165/206
f 188/166/207 214/199/258 167/161/202
f 209/201/260 166/158/199 81/83/113
f 210/202/261 167/161/202 214/199/258
f 215/203/262 213/200/259 209/201/260
f 216/204/263 214/199/258 212/198/257
f 79/87/264 211/197/256 215/203/262
f 212/198/257 80/91/265 216/204/263
f 130/169/210 222/205/266 131/157/198
f 130/169/210 223/206/267 72/207/268
f 133/155/196 222/205/266 220/208/269
f 223/206/267 134/156/197 221/209/270
f 135/153/194 220/208/269 218/210/271
f 221/209/270 136/154/195 219/211/272
f 137/212/273 218/210/271 217/213/208
f 219/211/272 137/212/273 217/213/208
f 218/210/274 231/214/275 217/213/275
f 219/211/276 231/214/275 230/215/277
f 218/210/274 227/216/278 229/217/279
f 228/218/280 219/211/276 230/215/277
f 220/208/281 225/219/226 227/216/278
f 226/220/282 221/209/283 228/218/280
f 72/207/268 225/219/284 222/205/266
f 72/207/268 226/220/285 224/221/286
f 224/221/287 229/217/288 225/219/289
f 230/215/290 224/221/287 226/220/291
f 225/219/289 229/217/288 227/216/292
f 228/218/293 230/215/290 226/220/291
f 183/149/190 234/222/294 232/223/295
f 235/224/296 184/150/191 233/225/297
f 112/146/186 232/223/295 254/226/298
f 233/225/297 113/147/187 255/227/299
f 112/146/186 256/228/300 110/127/158
f 113/147/187 257/229/301 255/227/299
f 114/142/182 234/222/294 181/151/192
f 115/145/185 235/224/296 253/230/302
f 114/142/182 250/231/303 252/232/304
f 251/233/305 115/145/185 253/230/302
f 116/140/180 248/234/306 250/231/303
f 249/235/307 117/143/183 251/233/305
f 118/138/178 246/236/308 248/234/306
f 247/237/309 119/141/181 249/235/307
f 120/136/176 244/238/310 246/236/308
f 245/239/311 121/139/179 247/237/309
f 124/132/171 244/238/310 122/134/174
f 125/135/175 245/239/311 243/240/312
f 126/130/313 242/241/314 124/132/171
f 127/133/315 243/240/312 241/242/316
f 126/130/313 236/243/317 240/244/318
f 237/245/319 127/133/315 241/242/316
f 179/129/166 238/246/320 236/243/317
f 239/247/321 180/131/169 237/245/319
f 128/126/156 256/228/300 238/246/320
f 257/229/301 129/128/159 239/247/321
f 256/228/300 276/248/322 238/246/320
f 257/229/301 277/249/323 259/250/324
f 236/243/317 276/248/322 278/251/325
f 277/249/323 237/245/319 279/252/326
f 236/243/317 274/253/327 240/244/328
f 237/245/319 275/254/329 279/252/326
f 240/244/328 272/255/330 242/241/314
f 241/242/331 273/256/332 275/254/329
f 244/238/310 272/255/330 270/257/333
f 273/256/332 245/239/311 271/258/334
f 244/238/310 268/259/335 246/236/308
f 245/239/311 269/260/336 271/258/334
f 248/234/337 268/259/335 266/261/338
f 269/260/336 249/235/339 267/262/340
f 248/234/337 264/263/341 250/231/342
f 249/235/339 265/264/343 267/262/340
f 250/231/342 262/265/344 252/232/345
f 251/233/346 263/266/347 265/264/343
f 234/222/348 262/265/344 280/267/349
f 263/266/347 235/224/350 281/268/351
f 256/228/300 260/269/352 258/270/353
f 261/271/354 257/229/301 259/250/324
f 254/226/355 282/272/356 260/269/352
f 283/273/357 255/227/358 261/271/354
f 232/223/359 280/267/349 282/272/356
f 281/268/351 233/225/360 283/273/357
f 67/123/153 284/274/361 73/275/362
f 285/276/363 67/123/153 73/275/362
f 108/119/149 286/277/364 284/274/361
f 287/278/365 109/121/151 285/276/363
f 104/116/146 286/277/364 106/115/366
f 105/279/367 287/278/365 289/280/368
f 102/108/138 288/281/369 104/116/146
f 103/110/140 289/280/368 291/282/370
f 100/104/134 290/283/371 102/108/138
f 101/106/136 291/282/370 293/284/372
f 100/104/134 294/285/373 292/286/374
f 295/287/375 101/106/136 293/284/372
f 96/101/376 294/285/377 98/100/378
f 97/288/379 295/287/380 297/289/381
f 96/101/376 298/290/382 296/291/383
f 299/292/384 97/288/379 297/289/381
f 94/93/385 300/293/386 298/290/382
f 301/294/387 95/95/388 299/292/384
f 309/295/389 338/296/390 308/297/391
f 309/298/389 339/299/392 329/300/393
f 308/297/391 336/301/394 307/302/395
f 308/303/391 337/304/396 339/299/392
f 307/302/395 340/305/397 306/306/398
f 307/307/395 341/308/399 337/304/396
f 89/69/99 306/306/398 340/305/397
f 306/306/398 90/75/105 341/308/399
f 87/73/103 340/305/397 334/309/400
f 341/308/399 88/78/108 335/310/401
f 85/76/106 334/309/400 330/311/402
f 335/310/401 86/77/107 331/312/403
f 83/79/109 330/311/402 332/313/404
f 331/312/403 84/82/112 333/314/405
f 330/311/402 338/296/390 332/313/404
f 339/299/392 331/312/403 333/314/405
f 334/309/400 336/301/394 330/311/402
f 335/310/401 337/304/396 341/308/399
f 332/313/404 328/315/406 326/316/407
f 333/314/405 329/300/393 339/299/392
f 81/83/113 332/313/404 326/316/407
f 333/314/405 82/86/116 327/317/408
f 342/318/409 215/203/262 209/201/260
f 343/319/410 216/204/263 345/320/411
f 326/316/407 209/201/260 81/83/113
f 327/317/408 210/202/261 343/319/410
f 215/203/262 346/321/412 79/87/264
f 216/204/263 347/322/413 345/320/411
f 346/321/414 92/94/124 79/87/117
f 347/322/415 93/323/416 301/294/387
f 324/324/417 304/325/418 77/326/419
f 325/327/420 304/328/418 353/329/421
f 352/330/422 78/331/423 304/325/418
f 353/329/421 78/332/423 351/333/424
f 78/331/423 348/334/425 305/335/426
f 349/336/427 78/332/423 305/337/426
f 305/335/426 328/315/428 309/295/389
f 329/300/393 305/337/426 309/298/389
f 328/315/406 342/318/409 326/316/407
f 329/300/393 343/319/429 349/336/427
f 296/291/383 318/338/430 310/339/431
f 319/340/432 297/289/381 311/341/433
f 316/342/434 77/326/419 76/343/435
f 317/344/436 77/345/419 325/327/420
f 358/346/437 303/347/438 302/348/439
f 359/349/440 303/350/438 357/351/441
f 303/347/438 354/352/442 75/353/443
f 355/354/444 303/350/438 75/355/443
f 75/353/443 316/342/434 76/343/435
f 317/344/436 75/355/443 76/356/435
f 292/357/374 362/358/445 364/359/446
f 363/360/447 293/361/372 365/362/448
f 364/359/446 368/363/449 366/364/450
f 369/365/451 365/362/448 367/366/452
f 366/364/450 370/367/453 372/368/454
f 371/369/455 367/366/452 373/370/456
f 372/368/454 376/371/457 374/372/458
f 377/373/459 373/370/456 375/374/460
f 378/375/461 376/371/457 314/376/462
f 379/377/463 377/373/459 375/374/460
f 316/342/434 374/372/458 378/375/461
f 375/374/460 317/344/436 379/377/463
f 354/352/442 372/368/454 374/372/458
f 373/370/456 355/354/444 375/374/460
f 356/378/464 366/364/450 372/368/454
f 367/366/452 357/351/441 373/370/456
f 358/346/437 364/359/446 366/364/450
f 365/362/448 359/349/440 367/366/452
f 292/357/374 360/379/465 290/380/371
f 293/361/372 361/381/466 365/362/448
f 360/379/465 302/348/439 74/382/467
f 361/381/466 302/383/439 359/349/440
f 284/384/361 288/385/369 290/380/468
f 289/386/368 285/387/363 291/388/469
f 284/384/470 360/379/465 74/382/467
f 361/381/466 285/387/471 74/389/467
f 73/390/472 284/384/470 74/382/467
f 74/389/467 285/387/471 73/391/472
f 296/291/383 362/358/473 294/285/377
f 297/289/381 363/360/474 311/341/433
f 310/339/431 368/363/449 362/358/473
f 369/365/451 311/341/433 363/360/474
f 312/392/475 370/367/453 368/363/449
f 371/369/455 313/393/476 369/365/451
f 376/371/457 382/394/477 314/376/462
f 377/373/459 383/395/478 371/369/455
f 350/396/479 384/397/480 348/334/425
f 351/333/424 385/398/481 387/399/482
f 384/397/480 320/400/483 318/338/430
f 385/398/481 321/401/484 387/399/482
f 298/290/382 384/397/480 318/338/430
f 385/398/481 299/292/384 319/340/432
f 300/293/386 342/318/485 384/397/480
f 343/319/429 301/294/387 385/398/481
f 342/318/485 348/334/425 384/397/480
f 385/398/481 349/336/427 343/319/429
f 300/293/386 346/321/486 344/402/487
f 345/320/488 347/322/489 301/294/387
f 322/403/490 378/375/461 314/376/462
f 323/404/491 379/377/463 381/405/492
f 378/375/461 324/324/417 316/342/434
f 379/377/463 325/327/420 381/405/492
f 386/406/493 322/403/490 320/400/483
f 387/399/482 323/404/491 381/405/492
f 352/330/422 386/406/493 350/396/479
f 353/329/421 387/399/482 381/405/492
f 324/324/417 380/407/494 352/330/422
f 353/329/421 381/405/492 325/327/420
f 388/408/495 402/409/496 400/410/497
f 389/411/498 403/412/499 415/413/500
f 400/410/497 404/414/501 398/415/502
f 405/416/503 401/417/504 399/418/505
f 404/414/501 396/419/506 398/415/502
f 405/416/503 397/420/507 407/421/508
f 406/422/509 394/423/510 396/419/506
f 407/421/508 395/424/511 409/425/512
f 408/426/513 392/427/514 394/423/510
f 409/425/512 393/428/515 411/429/516
f 392/427/514 412/430/517 390/431/518
f 413/432/519 393/428/515 391/433/520
f 410/434/521 418/435/522 412/430/517
f 419/436/523 411/429/516 413/432/519
f 408/426/524 420/437/525 410/434/521
f 421/438/526 409/425/527 411/429/516
f 424/439/528 408/426/524 406/422/509
f 425/440/529 409/425/527 423/441/530
f 426/442/531 406/422/509 404/414/501
f 427/443/532 407/421/508 425/440/529
f 428/444/533 404/414/501 402/409/496
f 429/445/534 405/416/503 427/443/532
f 402/409/496 416/446/535 428/444/533
f 417/447/536 403/412/499 429/445/534
f 320/400/483 442/448/537 318/338/430
f 321/401/484 443/449/538 445/450/539
f 390/431/540 444/451/541 320/452/542
f 391/433/543 445/453/544 413/432/545
f 310/339/431 442/448/537 312/392/475
f 443/449/538 311/341/433 313/393/476
f 382/454/546 414/455/547 388/408/495
f 415/413/500 383/456/548 389/411/498
f 412/430/517 440/457/549 444/451/550
f 441/458/551 413/432/519 445/453/539
f 446/459/552 440/457/549 438/460/553
f 447/461/554 441/458/551 445/453/539
f 434/462/555 438/460/556 436/463/208
f 439/464/557 435/465/558 437/466/208
f 448/467/559 434/462/560 432/468/561
f 449/469/562 435/465/563 447/461/554
f 448/467/559 450/470/564 430/471/565
f 449/469/562 451/472/566 433/473/567
f 430/471/565 416/446/535 414/455/547
f 431/474/568 417/447/536 451/472/566
f 312/392/475 430/475/569 382/394/477
f 431/476/570 313/393/476 383/395/478
f 442/448/537 448/477/559 312/392/475
f 443/449/538 449/478/562 447/479/554
f 442/448/537 444/480/550 446/481/552
f 447/479/554 445/450/539 443/449/538
f 416/446/535 452/482/571 476/483/572
f 453/484/573 417/447/536 477/485/574
f 432/468/561 452/482/571 450/470/564
f 433/473/567 453/484/573 463/486/575
f 432/468/561 460/487/576 462/488/577
f 461/489/578 433/473/567 463/486/575
f 436/463/579 460/487/580 434/462/581
f 437/466/582 461/489/583 459/490/584
f 438/460/585 458/491/586 436/463/579
f 439/464/587 459/490/584 457/492/588
f 438/460/553 454/493/589 456/494/590
f 455/495/591 439/464/592 457/492/593
f 440/457/549 474/496/594 454/493/595
f 475/497/596 441/458/551 455/495/597
f 428/444/533 476/483/572 464/498/598
f 477/485/574 429/445/534 465/499/599
f 426/442/531 464/498/598 466/500/600
f 465/499/599 427/443/532 467/501/601
f 424/439/528 466/500/602 468/502/603
f 467/501/604 425/440/529 469/503/605
f 424/439/528 470/504/606 422/505/607
f 425/440/529 471/506/608 469/503/605
f 422/505/607 472/507/609 420/437/525
f 423/441/530 473/508/610 471/506/608
f 420/437/525 474/496/594 418/435/522
f 421/438/526 475/497/596 473/508/610
f 456/494/611 478/509/612 458/491/613
f 457/492/614 479/510/615 481/511/616
f 480/512/617 484/513/618 478/509/612
f 481/511/616 485/514/619 483/515/620
f 484/513/618 488/516/621 486/517/622
f 489/518/623 485/514/619 487/519/624
f 488/516/621 492/520/625 486/517/622
f 489/518/623 493/521/626 491/522/627
f 464/498/598 486/517/622 492/520/625
f 487/519/624 465/499/599 493/521/626
f 484/513/618 476/483/572 452/482/571
f 485/514/619 477/485/574 487/519/624
f 462/488/628 484/513/618 452/482/571
f 463/486/629 485/514/619 479/510/615
f 458/491/613 462/488/628 460/487/208
f 463/486/629 459/490/630 461/489/208
f 474/496/594 456/494/611 454/493/595
f 475/497/596 457/492/614 481/511/616
f 472/507/631 480/512/617 474/496/632
f 481/511/616 473/508/633 475/497/634
f 488/516/621 472/507/631 470/504/635
f 489/518/623 473/508/633 483/515/620
f 490/523/636 470/504/635 468/502/637
f 491/522/627 471/506/638 489/518/623
f 466/500/639 490/523/636 468/502/637
f 491/522/627 467/501/640 469/503/641
f 464/498/598 492/520/625 466/500/639
f 467/501/640 493/521/626 465/499/599
f 392/427/642 504/524/643 502/525/644
f 505/526/645 393/428/646 503/527/647
f 394/423/648 502/525/644 500/528/649
f 503/527/647 395/424/650 501/529/651
f 394/423/648 498/530/652 396/419/653
f 395/424/650 499/531/654 501/529/651
f 396/419/653 496/532/655 398/533/656
f 397/420/657 497/534/658 499/531/654
f 398/533/659 494/535/660 400/536/661
f 399/537/662 495/538/663 497/534/664
f 400/536/661 506/539/665 388/540/666
f 401/541/667 507/542/668 495/538/663
f 502/525/669 506/539/670 494/535/671
f 503/527/672 507/542/673 505/526/674
f 494/535/671 500/528/675 502/525/669
f 501/529/676 495/538/677 503/527/672
f 496/532/678 498/530/679 500/528/675
f 501/529/676 499/531/680 497/534/681
f 382/394/682 506/543/665 314/376/683
f 383/544/684 507/542/668 389/545/685
f 314/546/462 504/524/686 322/547/490
f 505/526/687 315/548/688 323/549/491
f 320/452/483 504/524/643 390/431/689
f 505/526/645 321/550/484 391/433/690
f 47/1/1 1/13/13 3/2/2
f 4/4/4 2/16/16 48/5/5
f 45/3/3 3/2/2 5/7/7
f 6/9/9 4/4/4 46/6/6
f 3/2/2 9/14/14 7/11/11
f 8/12/12 10/15/15 4/4/4
f 1/13/13 11/17/17 9/14/14
f 10/15/15 12/20/20 2/16/16
f 11/17/17 13/26/26 15/18/18
f 16/19/19 14/27/27 12/20/20
f 9/14/14 15/18/18 17/21/21
f 18/22/22 16/19/19 10/15/15
f 21/23/23 19/32/32 17/21/21
f 22/24/24 16/19/19 18/22/22
f 13/26/26 23/28/28 21/23/23
f 22/24/24 24/31/31 14/27/27
f 23/28/28 25/39/39 27/29/29
f 28/30/30 26/54/691 24/31/31
f 27/29/29 29/35/35 19/32/32
f 28/30/30 22/24/24 20/25/25
f 33/34/34 31/45/45 29/35/35
f 34/36/36 28/30/30 30/33/33
f 35/38/38 33/34/34 27/29/29
f 36/40/40 26/54/691 28/30/30
f 37/41/41 39/44/44 33/34/34
f 38/42/42 36/40/40 34/36/36
f 39/44/44 41/47/47 31/45/45
f 40/43/43 34/36/36 32/37/37
f 45/3/3 43/8/8 41/47/47
f 46/6/6 40/43/43 42/46/46
f 47/1/1 45/3/3 39/44/44
f 48/5/5 38/42/42 40/43/43
f 37/41/48 51/51/55 49/48/49
f 38/42/51 48/5/692 50/49/52
f 35/38/54 53/53/59 51/51/55
f 36/40/56 38/42/51 52/50/53
f 25/39/58 55/56/63 53/53/59
f 26/54/60 36/40/56 54/52/57
f 23/28/62 57/59/67 55/56/63
f 24/31/64 26/54/60 56/55/61
f 23/28/62 13/26/69 59/58/66
f 60/60/68 14/27/72 24/31/64
f 13/26/69 11/17/73 63/61/70
f 64/62/71 12/20/76 14/27/72
f 11/17/73 1/13/77 65/63/74
f 66/64/75 2/16/78 12/20/76
f 1/13/77 47/1/50 49/48/49
f 50/49/52 48/5/692 2/16/78
f 174/67/97 176/71/101 91/68/98
f 175/70/100 90/75/105 91/68/98
f 172/72/102 174/67/97 89/69/99
f 173/74/104 88/78/108 90/75/105
f 85/76/106 170/80/110 172/72/102
f 173/74/104 171/81/111 86/77/107
f 83/79/109 168/84/114 170/80/110
f 171/81/111 169/85/115 84/82/112
f 81/83/113 166/158/199 168/84/114
f 169/85/115 167/161/202 82/86/116
f 79/87/117 92/94/124 146/88/118
f 147/90/120 93/323/416 80/91/121
f 94/93/123 148/98/128 146/88/118
f 95/95/125 93/323/416 147/90/120
f 94/93/123 96/101/131 150/97/127
f 151/99/129 97/288/693 95/95/125
f 98/100/130 152/105/135 150/97/127
f 99/102/132 97/288/693 151/99/129
f 100/104/134 154/109/139 152/105/135
f 101/106/136 99/102/132 153/103/133
f 102/108/138 156/113/143 154/109/139
f 103/110/140 101/106/136 155/107/137
f 102/108/138 104/116/146 158/112/142
f 159/114/144 105/279/367 103/110/140
f 106/115/145 160/120/150 158/112/142
f 107/117/147 105/279/367 159/114/144
f 108/119/149 162/124/154 160/120/150
f 109/121/151 107/117/147 161/118/148
f 67/123/153 68/125/694 162/124/154
f 67/123/153 109/121/151 163/122/152
f 128/126/156 160/120/163 162/124/157
f 129/128/159 111/551/695 163/122/160
f 128/126/156 179/129/166 158/112/162
f 159/114/164 180/131/169 129/128/159
f 156/113/165 158/112/162 179/129/166
f 157/111/168 127/133/173 180/131/169
f 154/109/170 156/113/165 126/130/167
f 155/107/172 125/135/175 127/133/173
f 152/105/135 154/109/170 124/132/171
f 153/103/133 123/137/177 125/135/175
f 150/97/127 152/105/135 122/134/174
f 151/99/129 121/139/179 123/137/177
f 148/98/128 150/97/127 120/136/176
f 149/96/126 119/141/181 121/139/179
f 146/88/118 148/98/128 118/138/178
f 147/90/120 117/143/183 119/141/181
f 164/89/119 146/88/118 116/140/180
f 165/92/122 115/145/185 117/143/183
f 114/142/182 181/151/192 177/144/184
f 177/144/184 182/152/193 115/145/185
f 162/124/157 68/125/188 112/146/186
f 163/122/160 111/551/695 113/147/187
f 112/146/186 68/125/188 178/148/189
f 178/148/189 68/125/188 113/147/187
f 181/151/192 183/149/190 178/148/189
f 182/152/193 177/144/184 178/148/189
f 135/153/194 137/212/273 176/71/101
f 176/71/101 137/212/273 136/154/195
f 133/155/196 135/153/194 174/67/97
f 175/70/100 136/154/195 134/156/197
f 133/155/196 172/72/102 170/80/110
f 134/156/197 132/162/203 171/81/111
f 166/158/199 187/164/205 185/159/200
f 186/160/201 188/166/207 167/161/202
f 131/157/198 170/80/110 168/84/114
f 169/85/115 171/81/111 132/162/203
f 190/163/204 189/167/208 187/164/205
f 190/163/204 145/174/215 188/166/207
f 187/164/205 189/167/208 69/168/209
f 188/166/207 186/160/201 69/168/209
f 131/157/198 185/159/200 69/168/209
f 132/162/203 130/169/210 69/168/209
f 142/170/211 193/176/217 191/171/212
f 192/172/213 194/177/218 143/173/214
f 140/175/216 195/191/239 193/176/217
f 194/177/218 196/182/241 141/178/219
f 197/179/220 195/191/696 140/175/221
f 198/181/223 139/180/697 141/178/224
f 71/183/234 197/179/236 139/180/698
f 144/165/206 191/171/212 70/185/230
f 145/174/215 190/163/231 70/185/230
f 191/171/212 206/194/244 208/186/232
f 192/172/213 70/185/230 208/186/232
f 71/183/234 199/196/699 200/188/235
f 201/189/237 199/196/700 71/183/227
f 197/179/236 200/188/235 202/190/238
f 203/192/240 201/189/237 198/181/229
f 202/190/238 204/195/246 193/176/217
f 203/192/240 196/182/241 194/177/218
f 193/176/243 204/195/246 206/194/244
f 207/187/233 205/193/242 194/177/245
f 204/195/246 202/190/238 200/188/235
f 205/193/242 199/196/247 201/189/237
f 199/196/247 208/186/232 206/194/244
f 207/187/233 208/186/232 199/196/247
f 139/180/701 140/175/250 164/89/252
f 165/92/255 141/178/254 139/180/702
f 140/175/216 142/170/211 211/197/256
f 212/198/257 143/173/214 141/178/219
f 144/165/206 213/200/259 211/197/256
f 145/174/215 143/173/214 212/198/257
f 187/164/205 166/158/199 213/200/259
f 188/166/207 145/174/215 214/199/258
f 209/201/260 213/200/259 166/158/199
f 210/202/261 82/86/116 167/161/202
f 215/203/262 211/197/256 213/200/259
f 216/204/263 210/202/261 214/199/258
f 79/87/264 164/89/703 211/197/256
f 212/198/257 165/92/704 80/91/265
f 130/169/210 72/207/268 222/205/266
f 130/169/210 132/162/203 223/206/267
f 133/155/196 131/157/198 222/205/266
f 223/206/267 132/162/203 134/156/197
f 135/153/194 133/155/196 220/208/269
f 221/209/270 134/156/197 136/154/195
f 137/212/273 135/153/194 218/210/271
f 219/211/272 136/154/195 137/212/273
f 218/210/274 229/217/279 231/214/275
f 219/211/276 217/213/275 231/214/275
f 218/210/274 220/208/281 227/216/278
f 228/218/280 221/209/283 219/211/276
f 220/208/281 222/205/226 225/219/226
f 226/220/282 223/206/282 221/209/283
f 72/207/268 224/221/286 225/219/284
f 72/207/268 223/206/267 226/220/285
f 224/221/287 231/214/705 229/217/288
f 230/215/290 231/214/705 224/221/287
f 183/149/190 181/151/192 234/222/294
f 235/224/296 182/152/193 184/150/191
f 112/146/186 183/149/190 232/223/295
f 233/225/297 184/150/191 113/147/187
f 112/146/186 254/226/298 256/228/300
f 113/147/187 111/551/695 257/229/301
f 114/142/182 252/232/304 234/222/294
f 115/145/185 182/152/193 235/224/296
f 114/142/182 116/140/180 250/231/303
f 251/233/305 117/143/183 115/145/185
f 116/140/180 118/138/178 248/234/306
f 249/235/307 119/141/181 117/143/183
f 118/138/178 120/136/176 246/236/308
f 247/237/309 121/139/179 119/141/181
f 120/136/176 122/134/174 244/238/310
f 245/239/311 123/137/177 121/139/179
f 124/132/171 242/241/314 244/238/310
f 125/135/175 123/137/177 245/239/311
f 126/130/313 240/244/318 242/241/314
f 127/133/315 125/135/175 243/240/312
f 126/130/313 179/129/166 236/243/317
f 237/245/319 180/131/169 127/133/315
f 179/129/166 128/126/156 238/246/320
f 239/247/321 129/128/159 180/131/169
f 128/126/156 110/127/158 256/228/300
f 257/229/301 111/551/695 129/128/159
f 256/228/300 258/270/353 276/248/322
f 257/229/301 239/247/321 277/249/323
f 236/243/317 238/246/320 276/248/322
f 277/249/323 239/247/321 237/245/319
f 236/243/317 278/251/325 274/253/327
f 237/245/319 241/242/331 275/254/329
f 240/244/328 274/253/327 272/255/330
f 241/242/331 243/240/312 273/256/332
f 244/238/310 242/241/314 272/255/330
f 273/256/332 243/240/312 245/239/311
f 244/238/310 270/257/333 268/259/335
f 245/239/311 247/237/309 269/260/336
f 248/234/337 246/236/308 268/259/335
f 269/260/336 247/237/309 249/235/339
f 248/234/337 266/261/338 264/263/341
f 249/235/339 251/233/346 265/264/343
f 250/231/342 264/263/341 262/265/344
f 251/233/346 253/230/706 263/266/347
f 234/222/348 252/232/345 262/265/344
f 263/266/347 253/230/706 235/224/350
f 256/228/300 254/226/355 260/269/352
f 261/271/354 255/227/358 257/229/301
f 254/226/355 232/223/359 282/272/356
f 283/273/357 233/225/360 255/227/358
f 232/223/359 234/222/348 280/267/349
f 281/268/351 235/224/350 233/225/360
f 67/123/153 108/119/149 284/274/361
f 285/276/363 109/121/151 67/123/153
f 108/119/149 106/115/366 286/277/364
f 287/278/365 107/117/707 109/121/151
f 104/116/146 288/281/369 286/277/364
f 105/279/367 107/117/707 287/278/365
f 102/108/138 290/283/371 288/281/369
f 103/110/140 105/279/367 289/280/368
f 100/104/134 292/286/374 290/283/371
f 101/106/136 103/110/140 291/282/370
f 100/104/134 98/100/708 294/285/373
f 295/287/375 99/102/709 101/106/136
f 96/101/376 296/291/383 294/285/377
f 97/288/379 99/102/710 295/287/380
f 96/101/376 94/93/385 298/290/382
f 299/292/384 95/95/388 97/288/379
f 94/93/385 92/94/124 300/293/386
f 301/294/387 93/323/416 95/95/388
f 309/295/389 328/315/428 338/296/390
f 309/298/389 308/303/391 339/299/392
f 308/297/391 338/296/390 336/301/394
f 308/303/391 307/307/395 337/304/396
f 307/302/395 336/301/394 340/305/397
f 307/307/395 306/306/398 341/308/399
f 89/69/99 91/68/98 306/306/398
f 306/306/398 91/68/98 90/75/105
f 87/73/103 89/69/99 340/305/397
f 341/308/399 90/75/105 88/78/108
f 85/76/106 87/73/103 334/309/400
f 335/310/401 88/78/108 86/77/107
f 83/79/109 85/76/106 330/311/402
f 331/312/403 86/77/107 84/82/112
f 330/311/402 336/301/394 338/296/390
f 339/299/392 337/304/396 331/312/403
f 334/309/400 340/305/397 336/301/394
f 335/310/401 331/312/403 337/304/396
f 332/313/404 338/296/390 328/315/428
f 333/314/405 327/317/408 329/300/711
f 81/83/113 83/79/109 332/313/404
f 333/314/405 84/82/112 82/86/116
f 342/318/409 344/402/712 215/203/262
f 343/319/410 210/202/261 216/204/263
f 326/316/407 342/318/409 209/201/260
f 327/317/408 82/86/116 210/202/261
f 215/203/262 344/402/712 346/321/412
f 216/204/263 80/91/265 347/322/413
f 346/321/414 300/293/386 92/94/124
f 347/322/415 80/91/121 93/323/416
f 324/324/417 352/330/422 304/325/418
f 325/327/420 77/345/419 304/328/418
f 352/330/422 350/396/479 78/331/423
f 353/329/421 304/328/418 78/332/423
f 78/331/423 350/396/479 348/334/425
f 349/336/427 351/333/424 78/332/423
f 305/335/426 348/334/425 328/315/428
f 329/300/393 349/336/427 305/337/426
f 328/315/428 348/334/425 342/318/485
f 329/300/711 327/317/408 343/319/410
f 296/291/383 298/290/382 318/338/430
f 319/340/432 299/292/384 297/289/381
f 316/342/434 324/324/417 77/326/419
f 317/344/436 76/356/435 77/345/419
f 358/346/437 356/378/464 303/347/438
f 359/349/440 302/383/439 303/350/438
f 303/347/438 356/378/464 354/352/442
f 355/354/444 357/351/441 303/350/438
f 75/353/443 354/352/442 316/342/434
f 317/344/436 355/354/444 75/355/443
f 292/357/374 294/285/373 362/358/445
f 363/360/447 295/287/375 293/361/372
f 364/359/446 362/358/445 368/363/449
f 369/365/451 363/360/447 365/362/448
f 366/364/450 368/363/449 370/367/453
f 371/369/455 369/365/451 367/366/452
f 372/368/454 370/367/453 376/371/457
f 377/373/459 371/369/455 373/370/456
f 378/375/461 374/372/458 376/371/457
f 379/377/463 315/552/688 377/373/459
f 316/342/434 354/352/442 374/372/458
f 375/374/460 355/354/444 317/344/436
f 354/352/442 356/378/464 372/368/454
f 373/370/456 357/351/441 355/354/444
f 356/378/464 358/346/437 366/364/450
f 367/366/452 359/349/440 357/351/441
f 358/346/437 360/379/465 364/359/446
f 365/362/448 361/381/466 359/349/440
f 292/357/374 364/359/446 360/379/465
f 293/361/372 291/388/370 361/381/466
f 360/379/465 358/346/437 302/348/439
f 361/381/466 74/389/467 302/383/439
f 284/384/361 286/553/364 288/385/369
f 289/386/368 287/554/365 285/387/363
f 284/384/713 290/380/371 360/379/465
f 361/381/466 291/388/370 285/387/714
f 296/291/383 310/339/431 362/358/473
f 297/289/381 295/287/380 363/360/474
f 310/339/431 312/392/475 368/363/449
f 369/365/451 313/393/476 311/341/433
f 312/392/475 382/394/477 370/367/453
f 371/369/455 383/395/478 313/393/476
f 376/371/457 370/367/453 382/394/477
f 377/373/459 315/552/688 383/395/478
f 350/396/479 386/406/493 384/397/480
f 351/333/424 349/336/427 385/398/481
f 384/397/480 386/406/493 320/400/483
f 385/398/481 319/340/432 321/401/484
f 298/290/382 300/293/386 384/397/480
f 385/398/481 301/294/387 299/292/384
f 300/293/386 344/402/487 342/318/485
f 343/319/429 345/320/488 301/294/387
f 322/403/490 380/407/494 378/375/461
f 323/404/491 315/552/688 379/377/463
f 378/375/461 380/407/494 324/324/417
f 379/377/463 317/344/436 325/327/420
f 386/406/493 380/407/494 322/403/490
f 387/399/482 321/401/484 323/404/491
f 352/330/422 380/407/494 386/406/493
f 353/329/421 351/333/424 387/399/482
f 388/408/495 414/455/547 402/409/496
f 389/411/498 401/417/504 403/412/499
f 400/410/497 402/409/496 404/414/501
f 405/416/503 403/412/499 401/417/504
f 404/414/501 406/422/509 396/419/506
f 405/416/503 399/418/505 397/420/507
f 406/422/509 408/426/513 394/423/510
f 407/421/508 397/420/507 395/424/511
f 408/426/513 410/434/521 392/427/514
f 409/425/512 395/424/511 393/428/515
f 392/427/514 410/434/521 412/430/517
f 413/432/519 411/429/516 393/428/515
f 410/434/521 420/437/525 418/435/522
f 419/436/523 421/438/526 411/429/516
f 408/426/524 422/505/607 420/437/525
f 421/438/526 423/441/530 409/425/527
f 424/439/528 422/505/607 408/426/524
f 425/440/529 407/421/508 409/425/527
f 426/442/531 424/439/528 406/422/509
f 427/443/532 405/416/503 407/421/508
f 428/444/533 426/442/531 404/414/501
f 429/445/534 403/412/499 405/416/503
f 402/409/496 414/455/547 416/446/535
f 417/447/536 415/413/500 403/412/499
f 320/400/483 444/480/550 442/448/537
f 321/401/484 319/340/432 443/449/538
f 390/431/540 412/430/715 444/451/541
f 391/433/543 321/550/716 445/453/544
f 310/339/431 318/338/430 442/448/537
f 443/449/538 319/340/432 311/341/433
f 382/454/546 430/471/565 414/455/547
f 415/413/500 431/474/568 383/456/548
f 412/430/517 418/435/522 440/457/549
f 441/458/551 419/436/523 413/432/519
f 446/459/552 444/451/550 440/457/549
f 447/461/554 439/464/592 441/458/551
f 434/462/555 446/459/717 438/460/556
f 439/464/557 447/461/718 435/465/558
f 448/467/559 446/459/552 434/462/560
f 449/469/562 433/473/567 435/465/563
f 448/467/559 432/468/561 450/470/564
f 449/469/562 431/474/568 451/472/566
f 430/471/565 450/470/564 416/446/535
f 431/474/568 415/413/500 417/447/536
f 312/392/475 448/477/559 430/475/565
f 431/476/568 449/478/562 313/393/476
f 442/448/537 446/481/552 448/477/559
f 443/449/538 313/393/476 449/478/562
f 416/446/535 450/470/564 452/482/571
f 453/484/573 451/472/566 417/447/536
f 432/468/561 462/488/577 452/482/571
f 433/473/567 451/472/566 453/484/573
f 432/468/561 434/462/560 460/487/576
f 461/489/578 435/465/563 433/473/567
f 436/463/579 458/491/586 460/487/580
f 437/466/582 435/465/719 461/489/583
f 438/460/585 456/494/720 458/491/586
f 439/464/587 437/466/582 459/490/584
f 438/460/553 440/457/549 454/493/589
f 455/495/591 441/458/551 439/464/592
f 440/457/549 418/435/522 474/496/594
f 475/497/596 419/436/523 441/458/551
f 428/444/533 416/446/535 476/483/572
f 477/485/574 417/447/536 429/445/534
f 426/442/531 428/444/533 464/498/598
f 465/499/599 429/445/534 427/443/532
f 424/439/528 426/442/531 466/500/602
f 467/501/604 427/443/532 425/440/529
f 424/439/528 468/502/603 470/504/606
f 425/440/529 423/441/530 471/506/608
f 422/505/607 470/504/606 472/507/609
f 423/441/530 421/438/526 473/508/610
f 420/437/525 472/507/609 474/496/594
f 421/438/526 419/436/523 475/497/596
f 456/494/611 480/512/617 478/509/612
f 457/492/614 459/490/630 479/510/615
f 480/512/617 482/555/721 484/513/618
f 481/511/616 479/510/615 485/514/619
f 484/513/618 482/555/721 488/516/621
f 489/518/623 483/515/620 485/514/619
f 488/516/621 490/523/636 492/520/625
f 489/518/623 487/519/624 493/521/626
f 464/498/598 476/483/572 486/517/622
f 487/519/624 477/485/574 465/499/599
f 484/513/618 486/517/622 476/483/572
f 485/514/619 453/484/573 477/485/574
f 462/488/628 478/509/612 484/513/618
f 463/486/629 453/484/573 485/514/619
f 458/491/613 478/509/612 462/488/628
f 463/486/629 479/510/615 459/490/630
f 474/496/594 480/512/617 456/494/611
f 475/497/596 455/495/597 457/492/614
f 472/507/631 482/555/721 480/512/617
f 481/511/616 483/515/620 473/508/633
f 488/516/621 482/555/721 472/507/631
f 489/518/623 471/506/638 473/508/633
f 490/523/636 488/516/621 470/504/635
f 491/522/627 469/503/641 471/506/638
f 466/500/639 492/520/625 490/523/636
f 491/522/627 493/521/626 467/501/640
f 392/427/642 390/431/689 504/524/643
f 505/526/645 391/433/690 393/428/646
f 394/423/648 392/427/642 502/525/644
f 503/527/647 393/428/646 395/424/650
f 394/423/648 500/528/649 498/530/652
f 395/424/650 397/420/657 499/531/654
f 396/419/653 498/530/652 496/532/655
f 397/420/657 399/537/722 497/534/658
f 398/533/659 496/532/723 494/535/660
f 399/537/662 401/541/667 495/538/663
f 400/536/661 494/535/660 506/539/665
f 401/541/667 389/545/685 507/542/668
f 502/525/669 504/524/724 506/539/670
f 503/527/672 495/538/677 507/542/673
f 494/535/671 496/532/678 500/528/675
f 501/529/676 497/534/681 495/538/677
f 382/394/682 388/556/666 506/543/665
f 383/544/684 315/548/725 507/542/668
f 314/546/462 506/539/726 504/524/686
f 505/526/687 507/542/727 315/548/688
f 320/452/483 322/547/490 504/524/643
f 505/526/645 323/549/491 321/550/484
